<svg width="150" height="142" viewBox="0 0 150 142" fill="none" xmlns="http://www.w3.org/2000/svg">
<path d="M145.264 53.5467C142.439 42.0002 124.962 38.3723 117.279 30.3316C109.352 22.0642 106.308 4.57872 95.311 1.35198C84.6453 -1.74395 72.7325 11.1369 61.1598 13.9537C49.5871 16.7706 33.0522 10.788 25.029 18.4537C16.7441 26.3636 22.1075 43.2909 18.9243 54.2706C15.7499 64.9101 1.91851 76.1863 4.73537 87.7328C7.55223 99.2793 25.0377 102.907 32.7208 110.948C40.6482 119.215 43.6918 136.701 54.6889 139.928C65.3546 143.023 77.2673 130.143 88.8487 127.326C100.43 124.509 116.948 130.492 124.971 122.826C133.256 114.916 127.892 97.9886 131.075 87.0089C134.25 76.3694 148.081 65.0933 145.264 53.5467Z" fill="#E6E6E6"/>
<path d="M123.515 108.139H21.0436C20.3212 108.139 19.6282 107.853 19.1165 107.343C18.6049 106.833 18.3163 106.141 18.314 105.418V16.6828C18.314 15.9589 18.6016 15.2646 19.1135 14.7527C19.6254 14.2408 20.3197 13.9532 21.0436 13.9532H50.3372C51.3998 13.9494 52.4484 14.1943 53.3994 14.6683C54.3504 15.1423 55.1773 15.8322 55.814 16.6828L59.9041 22.1334C60.5395 22.9784 61.3627 23.6641 62.3087 24.1363C63.2546 24.6085 64.2974 24.8543 65.3547 24.8543H120.785C121.509 24.8543 122.203 25.1419 122.715 25.6538C123.227 26.1657 123.515 26.86 123.515 27.584V108.139Z" fill="#0E4251"/>
<path d="M123.515 108.139H21.0436C20.3212 108.139 19.6282 107.853 19.1165 107.343C18.6049 106.833 18.3163 106.141 18.314 105.418V22.7873C18.314 22.0634 18.6016 21.3691 19.1135 20.8572C19.6254 20.3452 20.3197 20.0577 21.0436 20.0577H46.8489C47.9114 20.0539 48.9601 20.2988 49.911 20.7728C50.862 21.2468 51.6889 21.9367 52.3256 22.7873L56.4157 28.2379C57.0512 29.0829 57.8743 29.7686 58.8203 30.2408C59.7662 30.713 60.809 30.9588 61.8663 30.9588H120.785C121.509 30.9588 122.203 31.2464 122.715 31.7583C123.227 32.2702 123.515 32.9645 123.515 33.6885V108.139Z" fill="#075B78"/>
<path d="M123.515 109.011H52.3257C52.0944 109.011 51.8726 108.92 51.709 108.756C51.5455 108.593 51.4536 108.371 51.4536 108.139C51.4536 107.908 51.5455 107.686 51.709 107.523C51.8726 107.359 52.0944 107.267 52.3257 107.267H122.643V27.5842C122.643 27.0915 122.447 26.619 122.098 26.2707C121.75 25.9223 121.278 25.7266 120.785 25.7266H87.2094C86.9781 25.7266 86.7563 25.6347 86.5928 25.4712C86.4292 25.3076 86.3373 25.0858 86.3373 24.8545C86.3373 24.6232 86.4292 24.4014 86.5928 24.2379C86.7563 24.0743 86.9781 23.9824 87.2094 23.9824H120.785C121.74 23.9847 122.654 24.3649 123.329 25.0399C124.004 25.7149 124.384 26.6296 124.387 27.5842V108.139C124.387 108.371 124.295 108.593 124.131 108.756C123.968 108.92 123.746 109.011 123.515 109.011Z" fill="#34234D"/>
<path d="M47.0931 109.011H21.0436C20.0899 109.011 19.1751 108.633 18.4999 107.959C17.8247 107.286 17.4442 106.372 17.4419 105.418V16.6828C17.4419 15.7276 17.8214 14.8114 18.4968 14.136C19.1723 13.4605 20.0884 13.0811 21.0436 13.0811H50.3372C51.5218 13.0917 52.6881 13.3741 53.7464 13.9062C54.8048 14.4384 55.7269 15.2063 56.4419 16.1508L60.532 21.6101C61.0876 22.3453 61.8058 22.942 62.6303 23.3535C63.4548 23.765 64.3634 23.9802 65.2849 23.9822H81.9768C82.2081 23.9822 82.4299 24.0741 82.5934 24.2376C82.757 24.4012 82.8489 24.623 82.8489 24.8543C82.8489 25.0856 82.757 25.3074 82.5934 25.471C82.4299 25.6345 82.2081 25.7264 81.9768 25.7264H65.3285C64.1437 25.717 62.977 25.4353 61.9184 24.903C60.8599 24.3707 59.9379 23.6021 59.2239 22.6566L55.1338 17.2061C54.5751 16.4629 53.8505 15.8605 53.0177 15.4472C52.1849 15.0338 51.267 14.8208 50.3372 14.8252H21.0436C20.551 14.8252 20.0785 15.0209 19.7301 15.3693C19.3818 15.7177 19.1861 16.1901 19.1861 16.6828V105.418C19.1861 105.662 19.2342 105.903 19.3276 106.128C19.4211 106.353 19.5581 106.557 19.7307 106.729C19.9033 106.9 20.1081 107.036 20.3334 107.129C20.5588 107.221 20.8001 107.268 21.0436 107.267H47.0931C47.3244 107.267 47.5462 107.359 47.7097 107.523C47.8733 107.686 47.9652 107.908 47.9652 108.139C47.9652 108.37 47.8733 108.592 47.7097 108.756C47.5462 108.919 47.3244 109.011 47.0931 109.011Z" fill="#34234D"/>
<path d="M47.0928 25.2911H29.6509C29.1883 25.2911 28.7447 25.1073 28.4176 24.7802C28.0905 24.4531 27.9067 24.0095 27.9067 23.5469C27.9067 23.0843 28.0905 22.6407 28.4176 22.3136C28.7447 21.9865 29.1883 21.8027 29.6509 21.8027H47.0928C47.5554 21.8027 47.999 21.9865 48.3261 22.3136C48.6532 22.6407 48.837 23.0843 48.837 23.5469C48.837 24.0095 48.6532 24.4531 48.3261 24.7802C47.999 25.1073 47.5554 25.2911 47.0928 25.2911Z" fill="white"/>
<path d="M25.5088 108.14H128.965C129.687 108.14 130.379 107.853 130.889 107.343C131.399 106.832 131.686 106.14 131.686 105.419V40.1163C131.686 39.4224 131.41 38.7569 130.92 38.2663C130.429 37.7756 129.764 37.5 129.07 37.5H33.5756C32.8818 37.5 32.2163 37.7756 31.7257 38.2663C31.235 38.7569 30.9594 39.4224 30.9594 40.1163V105.419C30.9594 106.14 30.6727 106.832 30.1624 107.343C29.6522 107.853 28.9601 108.14 28.2384 108.14H25.5088Z" fill="#EDEDED"/>
<path d="M129.07 37.5H33.5758C32.1308 37.5 30.9595 38.6713 30.9595 40.1163V98.5465C30.9595 99.9914 32.1308 101.163 33.5758 101.163H129.07C130.515 101.163 131.686 99.9914 131.686 98.5465V40.1163C131.686 38.6713 130.515 37.5 129.07 37.5Z" fill="white"/>
<path d="M63.6627 83.7207H112.5C113.888 83.7207 115.219 84.272 116.2 85.2533C117.181 86.2346 117.733 87.5655 117.733 88.9533V108.139H63.6627C62.275 108.139 60.9441 107.588 59.9628 106.607C58.9815 105.625 58.4302 104.295 58.4302 102.907V88.9533C58.4302 87.5655 58.9815 86.2346 59.9628 85.2533C60.9441 84.272 62.275 83.7207 63.6627 83.7207Z" fill="#EDEDED"/>
<path d="M47.0931 109.012H25.5088C25.2775 109.012 25.0557 108.92 24.8921 108.756C24.7286 108.593 24.6367 108.371 24.6367 108.14C24.6367 107.908 24.7286 107.686 24.8921 107.523C25.0557 107.359 25.2775 107.267 25.5088 107.267H28.2385C28.7288 107.267 29.1991 107.073 29.5458 106.726C29.8925 106.379 30.0873 105.909 30.0873 105.419V40.1163C30.0873 39.1911 30.4548 38.3038 31.109 37.6497C31.7632 36.9955 32.6505 36.6279 33.5757 36.6279H129.07C129.995 36.6279 130.882 36.9955 131.537 37.6497C132.191 38.3038 132.558 39.1911 132.558 40.1163V50.5814C132.558 50.8127 132.466 51.0345 132.303 51.1981C132.139 51.3616 131.917 51.4535 131.686 51.4535C131.455 51.4535 131.233 51.3616 131.069 51.1981C130.906 51.0345 130.814 50.8127 130.814 50.5814V40.1163C130.814 39.6537 130.63 39.2101 130.303 38.883C129.976 38.5559 129.532 38.3721 129.07 38.3721H33.5757C33.1131 38.3721 32.6694 38.5559 32.3423 38.883C32.0152 39.2101 31.8315 39.6537 31.8315 40.1163V105.419C31.8299 106.07 31.6521 106.709 31.317 107.267H47.0931C47.3244 107.267 47.5462 107.359 47.7098 107.523C47.8733 107.686 47.9652 107.908 47.9652 108.14C47.9652 108.371 47.8733 108.593 47.7098 108.756C47.5462 108.92 47.3244 109.012 47.0931 109.012Z" fill="#34234D"/>
<path d="M128.965 109.011H52.3257C52.0944 109.011 51.8726 108.919 51.709 108.756C51.5455 108.592 51.4536 108.37 51.4536 108.139C51.4536 107.908 51.5455 107.686 51.709 107.522C51.8726 107.359 52.0944 107.267 52.3257 107.267H128.965C129.456 107.267 129.926 107.072 130.273 106.725C130.619 106.379 130.814 105.908 130.814 105.418V55.8135C130.814 55.5822 130.906 55.3604 131.07 55.1968C131.233 55.0333 131.455 54.9414 131.686 54.9414C131.917 54.9414 132.139 55.0333 132.303 55.1968C132.466 55.3604 132.558 55.5822 132.558 55.8135V105.418C132.556 106.37 132.177 107.283 131.503 107.956C130.83 108.63 129.917 109.009 128.965 109.011Z" fill="#34234D"/>
<path d="M106.395 83.7207H57.5582C54.6684 83.7207 52.3257 86.0634 52.3257 88.9533V122.093C52.3257 124.983 54.6684 127.325 57.5582 127.325H106.395C109.285 127.325 111.628 124.983 111.628 122.093V88.9533C111.628 86.0634 109.285 83.7207 106.395 83.7207Z" fill="#E76E26"/>
<path d="M95.93 55.8135H76.744C73.5059 55.8135 70.4004 57.0998 68.1107 59.3895C65.821 61.6792 64.5347 64.7847 64.5347 68.0228V83.7205H72.3835V68.0228C72.3835 66.8663 72.8429 65.7572 73.6607 64.9395C74.4784 64.1217 75.5875 63.6623 76.744 63.6623H95.93C97.0865 63.6623 98.1956 64.1217 99.0133 64.9395C99.8311 65.7572 100.29 66.8663 100.29 68.0228V83.7205H108.139V68.0228C108.139 64.7847 106.853 61.6792 104.563 59.3895C102.274 57.0998 99.1681 55.8135 95.93 55.8135Z" fill="#EDEDED"/>
<path d="M106.395 89.8252H57.5582C54.6684 89.8252 52.3257 92.1679 52.3257 95.0578V122.093C52.3257 124.982 54.6684 127.325 57.5582 127.325H106.395C109.285 127.325 111.628 124.982 111.628 122.093V95.0578C111.628 92.1679 109.285 89.8252 106.395 89.8252Z" fill="#E76E26"/>
<path d="M106.395 128.197H57.5583C55.9392 128.197 54.3865 127.554 53.2416 126.409C52.0968 125.265 51.4536 123.712 51.4536 122.093V88.9533C51.4536 87.3342 52.0968 85.7815 53.2416 84.6366C54.3865 83.4918 55.9392 82.8486 57.5583 82.8486H106.395C108.015 82.8486 109.567 83.4918 110.712 84.6366C111.857 85.7815 112.5 87.3342 112.5 88.9533V122.093C112.5 123.712 111.857 125.265 110.712 126.409C109.567 127.554 108.015 128.197 106.395 128.197ZM57.5583 84.5928C56.4018 84.5928 55.2927 85.0522 54.475 85.87C53.6572 86.6877 53.1978 87.7968 53.1978 88.9533V122.093C53.1978 123.249 53.6572 124.358 54.475 125.176C55.2927 125.994 56.4018 126.453 57.5583 126.453H106.395C107.552 126.453 108.661 125.994 109.479 125.176C110.297 124.358 110.756 123.249 110.756 122.093V88.9533C110.756 87.7968 110.297 86.6877 109.479 85.87C108.661 85.0522 107.552 84.5928 106.395 84.5928H57.5583Z" fill="#34234D"/>
<path d="M91.5697 55.8135H72.3836C69.1455 55.8135 66.04 57.0998 63.7503 59.3895C61.4606 61.6792 60.1743 64.7847 60.1743 68.0228V83.7205H68.0232V68.0228C68.0232 66.8663 68.4826 65.7572 69.3003 64.9395C70.118 64.1217 71.2272 63.6623 72.3836 63.6623H91.5697C92.7261 63.6623 93.8352 64.1217 94.653 64.9395C95.4707 65.7572 95.9301 66.8663 95.9301 68.0228V83.7205H103.779V68.0228C103.779 64.7847 102.493 61.6792 100.203 59.3895C97.9133 57.0998 94.8078 55.8135 91.5697 55.8135Z" fill="#E76E26"/>
<path d="M91.5697 59.3027H72.3836C69.1455 59.3027 66.04 60.5891 63.7503 62.8788C61.4606 65.1684 60.1743 68.2739 60.1743 71.512V83.7213H68.0232V68.0237C68.0232 66.8672 68.4826 65.7581 69.3003 64.9403C70.118 64.1226 71.2272 63.6632 72.3836 63.6632H91.5697C92.7261 63.6632 93.8352 64.1226 94.653 64.9403C95.4707 65.7581 95.9301 66.8672 95.9301 68.0237V83.7213H103.779V71.512C103.779 68.2739 102.493 65.1684 100.203 62.8788C97.9133 60.5891 94.8078 59.3027 91.5697 59.3027Z" fill="#E76E26"/>
<path d="M103.779 84.5926H95.9302C95.6989 84.5926 95.477 84.5007 95.3135 84.3371C95.1499 84.1736 95.0581 83.9518 95.0581 83.7205V68.0228C95.0581 67.0976 94.6905 66.2103 94.0363 65.5561C93.3821 64.902 92.4949 64.5344 91.5697 64.5344H72.3836C71.4585 64.5344 70.5712 64.902 69.917 65.5561C69.2628 66.2103 68.8953 67.0976 68.8953 68.0228V83.7205C68.8953 83.9518 68.8034 84.1736 68.6398 84.3371C68.4763 84.5007 68.2545 84.5926 68.0232 84.5926H60.1743C59.943 84.5926 59.7212 84.5007 59.5577 84.3371C59.3941 84.1736 59.3022 83.9518 59.3022 83.7205V68.0228C59.3022 64.5534 60.6805 61.2261 63.1337 58.7729C65.5869 56.3196 68.9142 54.9414 72.3836 54.9414H91.5697C95.0391 54.9414 98.3664 56.3196 100.82 58.7729C103.273 61.2261 104.651 64.5534 104.651 68.0228V83.7205C104.651 83.9518 104.559 84.1736 104.396 84.3371C104.232 84.5007 104.01 84.5926 103.779 84.5926ZM96.8022 82.8484H102.907V68.0228C102.907 65.016 101.712 62.1323 99.5863 60.0062C97.4602 57.88 94.5765 56.6856 91.5697 56.6856H72.3836C69.3768 56.6856 66.4932 57.88 64.367 60.0062C62.2409 62.1323 61.0464 65.016 61.0464 68.0228V82.8484H67.1511V68.0228C67.1511 66.635 67.7024 65.3041 68.6837 64.3228C69.665 63.3415 70.9959 62.7902 72.3836 62.7902H91.5697C92.9575 62.7902 94.2884 63.3415 95.2697 64.3228C96.251 65.3041 96.8022 66.635 96.8022 68.0228V82.8484Z" fill="#34234D"/>
<path d="M89.2411 115.613L86.337 106.474C87.2734 105.776 88.029 104.864 88.5403 103.814C89.0517 102.764 89.3039 101.606 89.276 100.439C89.2052 98.5761 88.4354 96.8085 87.1198 95.4881C85.8042 94.1677 84.0395 93.3913 82.1771 93.3137C81.5193 93.3019 80.8627 93.3752 80.2236 93.5318C81.7745 93.9283 83.1562 94.8146 84.1633 96.0589C85.1703 97.3032 85.7492 98.8392 85.8138 100.439C85.8387 101.609 85.5824 102.767 85.0665 103.817C84.5505 104.868 83.7899 105.779 82.8486 106.474L85.7265 115.613C85.8044 115.855 85.8244 116.112 85.7848 116.363C85.7453 116.614 85.6473 116.852 85.4988 117.058C85.3503 117.264 85.1554 117.433 84.9299 117.55C84.7044 117.667 84.4545 117.73 84.2004 117.732H87.6888C87.9451 117.734 88.198 117.674 88.4269 117.559C88.6558 117.444 88.8542 117.276 89.0056 117.069C89.1571 116.862 89.2574 116.622 89.2983 116.369C89.3392 116.116 89.3196 115.857 89.2411 115.613Z" fill="#A09CAD"/>
<path d="M85.7528 115.614L82.8487 106.474C83.7851 105.776 84.5407 104.864 85.052 103.814C85.5634 102.764 85.8156 101.607 85.7877 100.439C85.7252 98.8443 85.1514 97.3117 84.1511 96.068C83.1507 94.8242 81.7769 93.9352 80.2324 93.5322C78.8885 93.8629 77.6663 94.5689 76.7084 95.5678C75.7504 96.5666 75.0961 97.8173 74.8219 99.1738C74.5477 100.53 74.6647 101.937 75.1595 103.23C75.6542 104.522 76.5062 105.647 77.6161 106.474L74.7382 115.614C74.6603 115.856 74.6404 116.112 74.6799 116.363C74.7195 116.614 74.8175 116.853 74.966 117.059C75.1145 117.265 75.3093 117.433 75.5349 117.55C75.7604 117.668 76.0103 117.73 76.2644 117.733H84.2004C84.4568 117.734 84.7097 117.675 84.9386 117.559C85.1675 117.444 85.3658 117.276 85.5173 117.069C85.6688 116.863 85.7691 116.623 85.81 116.37C85.8509 116.117 85.8313 115.858 85.7528 115.614Z" fill="#B8B5C6"/>
<path d="M87.689 118.605H76.2646C75.8709 118.607 75.4823 118.516 75.1306 118.339C74.7788 118.162 74.474 117.905 74.2409 117.588C74.0078 117.27 73.8532 116.902 73.7896 116.514C73.726 116.125 73.7553 115.727 73.875 115.352L76.5785 106.78C75.7273 106.037 75.0393 105.126 74.558 104.104C74.0767 103.082 73.8126 101.971 73.7822 100.842C73.7519 99.7122 73.9561 98.5889 74.3818 97.5425C74.8076 96.4961 75.4457 95.5494 76.2559 94.7621C77.0429 93.9989 77.9743 93.4005 78.9957 93.0022C80.017 92.6038 81.1076 92.4135 82.2035 92.4423C84.2901 92.5281 86.268 93.3954 87.7447 94.8721C89.2213 96.3487 90.0887 98.3267 90.1745 100.413C90.2007 101.614 89.9636 102.807 89.48 103.906C88.9964 105.006 88.2779 105.987 87.3751 106.78L90.0785 115.352C90.1983 115.727 90.2276 116.125 90.164 116.514C90.1004 116.902 89.9458 117.27 89.7127 117.588C89.4796 117.905 89.1747 118.162 88.823 118.339C88.4713 118.516 88.0827 118.607 87.689 118.605ZM81.9768 94.1865C80.6245 94.1846 79.306 94.6088 78.2084 95.3988C77.1108 96.1887 76.2899 97.3044 75.8623 98.5873C75.4346 99.8702 75.422 101.255 75.8261 102.546C76.2302 103.836 77.0305 104.967 78.1134 105.777C78.2572 105.885 78.3638 106.036 78.4184 106.208C78.4731 106.38 78.4732 106.564 78.4187 106.736L75.5407 115.875C75.5052 115.989 75.4968 116.109 75.5164 116.227C75.5359 116.344 75.5828 116.455 75.6533 116.551C75.7238 116.647 75.8158 116.725 75.922 116.779C76.0282 116.833 76.1455 116.861 76.2646 116.861H87.689C87.808 116.861 87.9254 116.833 88.0316 116.779C88.1378 116.725 88.2298 116.647 88.3003 116.551C88.3708 116.455 88.4177 116.344 88.4372 116.227C88.4568 116.109 88.4484 115.989 88.4128 115.875L85.5349 106.736C85.4804 106.564 85.4805 106.38 85.5352 106.208C85.5898 106.036 85.6964 105.885 85.8402 105.777C86.6722 105.168 87.3447 104.367 87.8002 103.442C88.2558 102.517 88.4809 101.496 88.4564 100.466C88.3919 98.8209 87.7096 97.261 86.5458 96.0972C85.3819 94.9333 83.822 94.2511 82.1774 94.1865H81.9768Z" fill="#34234D"/>
<path d="M69.7673 5.23247H62.7906C62.5593 5.23247 62.3374 5.14059 62.1739 4.97704C62.0103 4.81349 61.9185 4.59167 61.9185 4.36037C61.9185 4.12908 62.0103 3.90726 62.1739 3.74371C62.3374 3.58016 62.5593 3.48828 62.7906 3.48828H69.7673C69.9986 3.48828 70.2204 3.58016 70.384 3.74371C70.5475 3.90726 70.6394 4.12908 70.6394 4.36037C70.6394 4.59167 70.5475 4.81349 70.384 4.97704C70.2204 5.14059 69.9986 5.23247 69.7673 5.23247Z" fill="#A09CAD"/>
<path d="M66.2788 8.72093C66.0475 8.72093 65.8257 8.62905 65.6622 8.4655C65.4986 8.30195 65.4067 8.08013 65.4067 7.84884V0.872093C65.4067 0.6408 65.4986 0.418979 65.6622 0.25543C65.8257 0.091881 66.0475 0 66.2788 0C66.5101 0 66.7319 0.091881 66.8955 0.25543C67.059 0.418979 67.1509 0.6408 67.1509 0.872093V7.84884C67.1509 8.08013 67.059 8.30195 66.8955 8.4655C66.7319 8.62905 66.5101 8.72093 66.2788 8.72093Z" fill="#A09CAD"/>
<path d="M12.2092 104.651H5.23244C5.00115 104.651 4.77933 104.56 4.61578 104.396C4.45223 104.232 4.36035 104.011 4.36035 103.779C4.36035 103.548 4.45223 103.326 4.61578 103.163C4.77933 102.999 5.00115 102.907 5.23244 102.907H12.2092C12.4405 102.907 12.6623 102.999 12.8259 103.163C12.9894 103.326 13.0813 103.548 13.0813 103.779C13.0813 104.011 12.9894 104.232 12.8259 104.396C12.6623 104.56 12.4405 104.651 12.2092 104.651Z" fill="#A09CAD"/>
<path d="M8.72073 108.14C8.48943 108.14 8.26761 108.048 8.10406 107.884C7.94051 107.721 7.84863 107.499 7.84863 107.268V100.291C7.84863 100.06 7.94051 99.8379 8.10406 99.6744C8.26761 99.5108 8.48943 99.4189 8.72073 99.4189C8.95202 99.4189 9.17384 99.5108 9.33739 99.6744C9.50094 99.8379 9.59282 100.06 9.59282 100.291V107.268C9.59282 107.499 9.50094 107.721 9.33739 107.884C9.17384 108.048 8.95202 108.14 8.72073 108.14Z" fill="#A09CAD"/>
<path d="M120.349 16.5694H111.628C111.397 16.5694 111.175 16.4775 111.011 16.314C110.848 16.1504 110.756 15.9286 110.756 15.6973C110.756 15.466 110.848 15.2442 111.011 15.0806C111.175 14.9171 111.397 14.8252 111.628 14.8252H120.349C120.58 14.8252 120.802 14.9171 120.966 15.0806C121.129 15.2442 121.221 15.466 121.221 15.6973C121.221 15.9286 121.129 16.1504 120.966 16.314C120.802 16.4775 120.58 16.5694 120.349 16.5694Z" fill="#A09CAD"/>
<path d="M115.988 20.93C115.757 20.93 115.535 20.8381 115.372 20.6745C115.208 20.511 115.116 20.2892 115.116 20.0579V11.3369C115.116 11.1056 115.208 10.8838 115.372 10.7203C115.535 10.5567 115.757 10.4648 115.988 10.4648C116.22 10.4648 116.441 10.5567 116.605 10.7203C116.769 10.8838 116.86 11.1056 116.86 11.3369V20.0579C116.86 20.2892 116.769 20.511 116.605 20.6745C116.441 20.8381 116.22 20.93 115.988 20.93Z" fill="#A09CAD"/>
<path d="M95.9304 136.919H87.2095C86.9782 136.919 86.7564 136.827 86.5928 136.664C86.4293 136.5 86.3374 136.278 86.3374 136.047C86.3374 135.816 86.4293 135.594 86.5928 135.43C86.7564 135.267 86.9782 135.175 87.2095 135.175H95.9304C96.1617 135.175 96.3835 135.267 96.5471 135.43C96.7106 135.594 96.8025 135.816 96.8025 136.047C96.8025 136.278 96.7106 136.5 96.5471 136.664C96.3835 136.827 96.1617 136.919 95.9304 136.919Z" fill="#A09CAD"/>
<path d="M91.5698 141.279C91.3386 141.279 91.1167 141.187 90.9532 141.023C90.7896 140.86 90.6978 140.638 90.6978 140.406V131.686C90.6978 131.454 90.7896 131.232 90.9532 131.069C91.1167 130.905 91.3386 130.813 91.5698 130.813C91.8011 130.813 92.023 130.905 92.1865 131.069C92.3501 131.232 92.4419 131.454 92.4419 131.686V140.406C92.4419 140.638 92.3501 140.86 92.1865 141.023C92.023 141.187 91.8011 141.279 91.5698 141.279Z" fill="#A09CAD"/>
<path d="M34.0115 124.709H25.2906C25.0593 124.709 24.8374 124.617 24.6739 124.454C24.5103 124.29 24.4185 124.068 24.4185 123.837C24.4185 123.606 24.5103 123.384 24.6739 123.22C24.8374 123.057 25.0593 122.965 25.2906 122.965H34.0115C34.2428 122.965 34.4646 123.057 34.6281 123.22C34.7917 123.384 34.8836 123.606 34.8836 123.837C34.8836 124.068 34.7917 124.29 34.6281 124.454C34.4646 124.617 34.2428 124.709 34.0115 124.709Z" fill="#A09CAD"/>
<path d="M29.6514 129.07C29.4201 129.07 29.1983 128.978 29.0347 128.814C28.8712 128.651 28.7793 128.429 28.7793 128.198V119.477C28.7793 119.245 28.8712 119.023 29.0347 118.86C29.1983 118.696 29.4201 118.604 29.6514 118.604C29.8827 118.604 30.1045 118.696 30.2681 118.86C30.4316 119.023 30.5235 119.245 30.5235 119.477V128.198C30.5235 128.429 30.4316 128.651 30.2681 128.814C30.1045 128.978 29.8827 129.07 29.6514 129.07Z" fill="#A09CAD"/>
<path d="M9.59302 47.9649H0.872093C0.6408 47.9649 0.418979 47.873 0.25543 47.7095C0.091881 47.5459 0 47.3241 0 47.0928C0 46.8615 0.091881 46.6397 0.25543 46.4761C0.418979 46.3126 0.6408 46.2207 0.872093 46.2207H9.59302C9.82432 46.2207 10.0461 46.3126 10.2097 46.4761C10.3732 46.6397 10.4651 46.8615 10.4651 47.0928C10.4651 47.3241 10.3732 47.5459 10.2097 47.7095C10.0461 47.873 9.82432 47.9649 9.59302 47.9649Z" fill="#A09CAD"/>
<path d="M5.23244 52.3255C5.00115 52.3255 4.77933 52.2336 4.61578 52.07C4.45223 51.9065 4.36035 51.6847 4.36035 51.4534V42.7324C4.36035 42.5012 4.45223 42.2793 4.61578 42.1158C4.77933 41.9522 5.00115 41.8604 5.23244 41.8604C5.46374 41.8604 5.68556 41.9522 5.84911 42.1158C6.01266 42.2793 6.10454 42.5012 6.10454 42.7324V51.4534C6.10454 51.6847 6.01266 51.9065 5.84911 52.07C5.68556 52.2336 5.46374 52.3255 5.23244 52.3255Z" fill="#A09CAD"/>
<path d="M149.128 81.1045H142.151C141.92 81.1045 141.698 81.0127 141.535 80.8491C141.371 80.6856 141.279 80.4637 141.279 80.2324C141.279 80.0012 141.371 79.7793 141.535 79.6158C141.698 79.4522 141.92 79.3604 142.151 79.3604H149.128C149.359 79.3604 149.581 79.4522 149.745 79.6158C149.908 79.7793 150 80.0012 150 80.2324C150 80.4637 149.908 80.6856 149.745 80.8491C149.581 81.0127 149.359 81.1045 149.128 81.1045Z" fill="#A09CAD"/>
<path d="M145.64 84.593C145.408 84.593 145.187 84.5011 145.023 84.3376C144.859 84.174 144.768 83.9522 144.768 83.7209V76.7442C144.768 76.5129 144.859 76.291 145.023 76.1275C145.187 75.964 145.408 75.8721 145.64 75.8721C145.871 75.8721 146.093 75.964 146.256 76.1275C146.42 76.291 146.512 76.5129 146.512 76.7442V83.7209C146.512 83.9522 146.42 84.174 146.256 84.3376C146.093 84.5011 145.871 84.593 145.64 84.593Z" fill="#A09CAD"/>
</svg>
