<svg width="150" height="142" viewBox="0 0 150 142" fill="none" xmlns="http://www.w3.org/2000/svg">
<path d="M130.448 46.9091C125.791 36.0254 129.21 17.9643 119.756 10.848C110.599 3.94107 94.4043 12.13 82.256 10.6562C70.1078 9.18235 56.2415 -2.61707 45.7066 1.90037C34.8839 6.55735 33.8723 24.9149 26.7735 34.3858C19.8839 43.6039 2.44206 49.473 0.968226 61.6911C-0.505611 73.9091 15.0438 83.8074 19.5525 94.3684C24.2095 105.261 20.7909 123.313 30.2444 130.429C39.4014 137.336 55.5961 129.147 67.788 130.621C79.9799 132.095 93.7589 143.903 104.294 139.342C115.16 134.685 116.128 116.328 123.227 106.857C130.116 97.6736 147.558 91.7696 149.032 79.5515C150.506 67.3335 134.957 57.4701 130.448 46.9091Z" fill="#E6E6E6"/>
<path d="M103.779 42.7322C103.779 37.5795 102.395 32.5216 99.7717 28.0864C97.1488 23.6513 93.3832 20.0017 88.8683 17.5188C84.3533 15.0358 79.2546 13.8106 74.1044 13.971C68.9543 14.1314 63.9416 15.6715 59.5899 18.4306C55.2382 21.1897 51.7071 25.0665 49.3653 29.6563C47.0234 34.246 45.9568 39.3803 46.2767 44.523C46.5967 49.6657 48.2914 54.6282 51.1841 58.8923C54.0767 63.1564 58.0611 66.5657 62.7212 68.7642V76.0112L67.6921 80.9909L62.7212 85.9618L67.6921 90.9328L62.7212 95.9298L67.6921 100.901L62.7212 105.872L67.6921 110.851L62.7212 115.822L74.2328 127.325L87.3142 114.244V68.7642C92.2431 66.4308 96.4076 62.7451 99.3226 58.1363C102.238 53.5276 103.783 48.1854 103.779 42.7322Z" fill="#CA6021"/>
<path d="M79.3606 18.3138C85.9295 18.3062 92.302 20.5535 97.4129 24.6801C94.8843 21.5205 91.7179 18.9296 88.1202 17.0767C84.5225 15.2238 80.5745 14.1505 76.5338 13.9268C72.4932 13.7031 68.4508 14.3341 64.6706 15.7786C60.8904 17.2231 57.4573 19.4486 54.5955 22.3098C51.7336 25.171 49.5074 28.6036 48.0621 32.3836C46.6168 36.1635 45.9849 40.2057 46.2077 44.2464C46.4305 48.2871 47.503 52.2353 49.3551 55.8334C51.2073 59.4315 53.7974 62.5985 56.9565 65.1278C53.5567 60.8999 51.4211 55.7972 50.7962 50.4081C50.1712 45.019 51.0823 39.563 53.4243 34.6693C55.7663 29.7756 59.4438 25.6436 64.0328 22.7498C68.6218 19.8559 73.9353 18.3182 79.3606 18.3138Z" fill="white"/>
<path d="M74.2329 128.197C74.0041 128.196 73.7849 128.105 73.6225 127.944L62.1021 116.424C61.9397 116.26 61.8485 116.039 61.8485 115.809C61.8485 115.578 61.9397 115.357 62.1021 115.194L66.4626 110.834L62.1021 106.473C61.9397 106.31 61.8485 106.089 61.8485 105.858C61.8485 105.628 61.9397 105.407 62.1021 105.243L66.4626 100.883L62.1021 96.5225C61.9397 96.3591 61.8485 96.138 61.8485 95.9077C61.8485 95.6773 61.9397 95.4562 62.1021 95.2928L66.4626 90.9324L62.1021 86.5719C62.0213 86.4904 61.9573 86.3938 61.9139 86.2875C61.8705 86.1813 61.8485 86.0675 61.8492 85.9527C61.8485 85.8379 61.8705 85.7242 61.9139 85.6179C61.9573 85.5117 62.0213 85.415 62.1021 85.3335L66.4626 80.9731L62.1021 76.6126C62.0213 76.5311 61.9573 76.4345 61.9139 76.3282C61.8705 76.222 61.8485 76.1082 61.8492 75.9934V69.3045C56.9059 66.8403 52.7449 63.0503 49.8312 58.3578C46.9175 53.6654 45.3657 48.2552 45.3492 42.7318C45.3354 36.649 47.206 30.7112 50.7038 25.7347C50.8359 25.5453 51.0376 25.416 51.2649 25.3751C51.4921 25.3342 51.7263 25.3851 51.9161 25.5167C52.0111 25.5821 52.0921 25.6657 52.1546 25.7627C52.2171 25.8597 52.2597 25.9681 52.2799 26.0816C52.3002 26.1952 52.2978 26.3116 52.2727 26.4242C52.2477 26.5368 52.2006 26.6433 52.1341 26.7376C48.8425 31.4205 47.0817 37.0078 47.0934 42.7318C47.1097 48.0184 48.6199 53.1927 51.4497 57.6582C54.2796 62.1237 58.3139 65.6984 63.0876 67.9702C63.2389 68.0402 63.3671 68.1522 63.4567 68.2929C63.5464 68.4335 63.5938 68.597 63.5934 68.7638V75.6533L68.3114 80.3713C68.4738 80.5347 68.565 80.7557 68.565 80.9861C68.565 81.2165 68.4738 81.4376 68.3114 81.601L63.9509 85.9614L68.3114 90.3219C68.4738 90.4853 68.565 90.7063 68.565 90.9367C68.565 91.1671 68.4738 91.3882 68.3114 91.5516L63.9509 95.912L68.3114 100.272C68.3931 100.354 68.458 100.45 68.5023 100.556C68.5466 100.663 68.5694 100.777 68.5694 100.892C68.5694 101.007 68.5466 101.121 68.5023 101.227C68.458 101.333 68.3931 101.43 68.3114 101.511L63.9509 105.871L68.3114 110.232C68.3922 110.313 68.4562 110.41 68.4996 110.516C68.543 110.622 68.565 110.736 68.5643 110.851C68.5634 111.08 68.4725 111.299 68.3114 111.461L63.9509 115.822L74.2329 126.113L86.4422 113.903V73.9963C86.4422 73.765 86.5341 73.5432 86.6977 73.3797C86.8612 73.2161 87.083 73.1242 87.3143 73.1242C87.5456 73.1242 87.7674 73.2161 87.931 73.3797C88.0945 73.5432 88.1864 73.765 88.1864 73.9963V114.243C88.1831 114.473 88.0891 114.693 87.9248 114.854L74.8434 127.935C74.7619 128.016 74.6653 128.08 74.559 128.123C74.4527 128.167 74.339 128.189 74.2242 128.188L74.2329 128.197Z" fill="#E76E26"/>
<path d="M87.2881 69.6366C87.0877 69.6397 86.8924 69.5738 86.735 69.4499C86.5776 69.326 86.4676 69.1516 86.4236 68.9562C86.3796 68.7607 86.4043 68.556 86.4934 68.3766C86.5825 68.1972 86.7307 68.0539 86.9131 67.9709C92.6481 65.2648 97.2904 60.6861 100.075 54.9891C102.861 49.2921 103.622 42.8163 102.235 36.6285C100.848 30.4407 97.3952 24.9097 92.4447 20.9467C87.4943 16.9836 81.3417 14.8247 75.0003 14.8255C67.8582 14.8155 60.9869 17.5577 55.8142 22.4825C55.7332 22.5643 55.6367 22.6291 55.5304 22.6734C55.4242 22.7177 55.3102 22.7405 55.1951 22.7405C55.0799 22.7405 54.9659 22.7177 54.8597 22.6734C54.7534 22.6291 54.6569 22.5643 54.5759 22.4825C54.4134 22.3191 54.3223 22.0981 54.3223 21.8677C54.3223 21.6373 54.4134 21.4163 54.5759 21.2529C58.7795 17.2586 64.062 14.5846 69.7698 13.5617C75.4775 12.5388 81.3599 13.2119 86.689 15.4978C92.0182 17.7837 96.56 21.582 99.7526 26.4227C102.945 31.2633 104.648 36.9338 104.651 42.7325C104.634 48.3501 103.029 53.8483 100.022 58.5931C97.0144 63.3379 92.7271 67.136 87.6544 69.5494C87.5401 69.6048 87.4151 69.6345 87.2881 69.6366Z" fill="#E76E26"/>
<path d="M78.314 25.0723C79.5208 26.5809 80.1924 28.4476 80.2235 30.3793C80.2546 32.311 79.6434 34.1983 78.4859 35.745C77.3283 37.2918 75.6899 38.4104 73.8279 38.9252C71.9658 39.4401 69.9855 39.3221 68.1978 38.5897C69.0296 39.6296 70.0885 40.4653 71.2934 41.0325C72.4982 41.5997 73.8169 41.8835 75.1485 41.8621C76.48 41.8406 77.7889 41.5146 78.9748 40.9088C80.1608 40.3031 81.1923 39.4338 81.9902 38.3676C82.7881 37.3014 83.3313 36.0667 83.578 34.7581C83.8247 33.4494 83.7685 32.1017 83.4136 30.8182C83.0587 29.5346 82.4146 28.3494 81.5306 27.3534C80.6466 26.3574 79.5463 25.5771 78.314 25.0723Z" fill="#B8B5C6"/>
<path d="M80.2326 30.5234C80.2311 28.5413 79.5544 26.6188 78.314 25.0728C76.5263 24.3404 74.546 24.2224 72.6839 24.7373C70.8218 25.2521 69.1835 26.3707 68.0259 27.9175C66.8683 29.4642 66.2571 31.3515 66.2882 33.2832C66.3193 35.2149 66.991 37.0816 68.1977 38.5902C69.5224 39.1344 70.9606 39.344 72.3854 39.2005C73.8102 39.0571 75.1778 38.5649 76.3674 37.7676C77.5569 36.9703 78.5318 35.8923 79.2059 34.6289C79.88 33.3654 80.2326 31.9554 80.2326 30.5234Z" fill="white"/>
<path d="M75.0003 42.7319C73.1029 42.7319 71.2482 42.1693 69.6707 41.1152C68.0931 40.0611 66.8635 38.5629 66.1375 36.81C65.4114 35.0571 65.2214 33.1283 65.5916 31.2674C65.9617 29.4066 66.8754 27.6972 68.217 26.3556C69.5586 25.014 71.2679 24.1004 73.1287 23.7302C74.9896 23.3601 76.9184 23.5501 78.6713 24.2761C80.4242 25.0022 81.9225 26.2318 82.9766 27.8093C84.0307 29.3869 84.5933 31.2416 84.5933 33.1389C84.5933 34.3987 84.3451 35.6461 83.863 36.81C83.381 37.9739 82.6743 39.0314 81.7835 39.9222C80.8927 40.813 79.8352 41.5196 78.6713 42.0017C77.5075 42.4838 76.26 42.7319 75.0003 42.7319ZM75.0003 25.2901C73.4479 25.2901 71.9304 25.7504 70.6397 26.6129C69.3489 27.4753 68.3429 28.7011 67.7489 30.1353C67.1548 31.5695 66.9994 33.1476 67.3022 34.6702C67.6051 36.1927 68.3526 37.5912 69.4503 38.6889C70.548 39.7866 71.9465 40.5341 73.469 40.837C74.9915 41.1398 76.5697 40.9844 78.0039 40.3903C79.4381 39.7962 80.6639 38.7902 81.5263 37.4995C82.3888 36.2088 82.8491 34.6913 82.8491 33.1389C82.8491 31.0573 82.0222 29.0609 80.5502 27.589C79.0783 26.117 77.0819 25.2901 75.0003 25.2901Z" fill="#E76E26"/>
<path d="M60.9767 93.3135H39.2442C39.0129 93.3135 38.791 93.2216 38.6275 93.0581C38.464 92.8945 38.3721 92.6727 38.3721 92.4414C38.3721 92.2101 38.464 91.9883 38.6275 91.8248C38.791 91.6612 39.0129 91.5693 39.2442 91.5693H60.9767C61.208 91.5693 61.4298 91.6612 61.5934 91.8248C61.7569 91.9883 61.8488 92.2101 61.8488 92.4414C61.8488 92.6727 61.7569 92.8945 61.5934 93.0581C61.4298 93.2216 61.208 93.3135 60.9767 93.3135Z" fill="#E76E26"/>
<path d="M59.2326 75.8719H49.7093C49.5945 75.8726 49.4808 75.8506 49.3745 75.8072C49.2683 75.7638 49.1716 75.6999 49.0901 75.619L42.9855 69.5144C42.9042 69.4331 42.8397 69.3365 42.7957 69.2303C42.7517 69.124 42.729 69.0102 42.729 68.8952C42.729 68.7802 42.7517 68.6663 42.7957 68.5601C42.8397 68.4539 42.9042 68.3573 42.9855 68.276C43.0668 68.1947 43.1633 68.1302 43.2696 68.0862C43.3758 68.0422 43.4897 68.0195 43.6047 68.0195C43.7197 68.0195 43.8335 68.0422 43.9398 68.0862C44.046 68.1302 44.1425 68.1947 44.2239 68.276L50.0669 74.1277H59.2326C59.4639 74.1277 59.6857 74.2196 59.8492 74.3832C60.0128 74.5467 60.1047 74.7685 60.1047 74.9998C60.1047 75.2311 60.0128 75.453 59.8492 75.6165C59.6857 75.7801 59.4639 75.8719 59.2326 75.8719Z" fill="#E76E26"/>
<path d="M60.1049 84.593H44.477C44.3623 84.5937 44.2485 84.5717 44.1422 84.5283C44.036 84.4849 43.9393 84.4209 43.8579 84.3401L38.0148 78.4883H27.0352C26.8039 78.4883 26.5821 78.3965 26.4185 78.2329C26.255 78.0694 26.1631 77.8475 26.1631 77.6162C26.1631 77.385 26.255 77.1631 26.4185 76.9996C26.5821 76.836 26.8039 76.7442 27.0352 76.7442H38.3724C38.4872 76.7435 38.6009 76.7655 38.7072 76.8089C38.8134 76.8523 38.9101 76.9162 38.9916 76.9971L44.8346 82.8488H60.1049C60.3362 82.8488 60.5581 82.9407 60.7216 83.1042C60.8852 83.2678 60.977 83.4896 60.977 83.7209C60.977 83.9522 60.8852 84.174 60.7216 84.3376C60.5581 84.5011 60.3362 84.593 60.1049 84.593Z" fill="#E76E26"/>
<path d="M43.6047 116.861C43.4899 116.861 43.3761 116.839 43.2699 116.796C43.1636 116.752 43.067 116.688 42.9855 116.608C42.9038 116.527 42.8389 116.43 42.7946 116.324C42.7503 116.218 42.7275 116.104 42.7275 115.988C42.7275 115.873 42.7503 115.759 42.7946 115.653C42.8389 115.547 42.9038 115.45 42.9855 115.369L49.0902 109.265C49.1716 109.184 49.2683 109.12 49.3745 109.076C49.4808 109.033 49.5946 109.011 49.7093 109.012H60.9681C61.1994 109.012 61.4212 109.104 61.5847 109.267C61.7483 109.431 61.8402 109.653 61.8402 109.884C61.8402 110.115 61.7483 110.337 61.5847 110.5C61.4212 110.664 61.1994 110.756 60.9681 110.756H50.0669L44.2239 116.608C44.1424 116.688 44.0457 116.752 43.9395 116.796C43.8332 116.839 43.7195 116.861 43.6047 116.861Z" fill="#E76E26"/>
<path d="M38.3724 108.139H27.0352C26.8039 108.139 26.5821 108.047 26.4185 107.883C26.255 107.72 26.1631 107.498 26.1631 107.267C26.1631 107.036 26.255 106.814 26.4185 106.65C26.5821 106.487 26.8039 106.395 27.0352 106.395H38.0148L43.8579 100.543C43.9393 100.462 44.036 100.398 44.1422 100.355C44.2485 100.311 44.3623 100.289 44.477 100.29H49.7096C49.9409 100.29 50.1627 100.382 50.3263 100.545C50.4898 100.709 50.5817 100.931 50.5817 101.162C50.5817 101.393 50.4898 101.615 50.3263 101.779C50.1627 101.942 49.9409 102.034 49.7096 102.034H44.8346L38.9916 107.886C38.9101 107.967 38.8134 108.031 38.7072 108.074C38.6009 108.118 38.4872 108.14 38.3724 108.139Z" fill="#E76E26"/>
<path d="M61.8402 102.034H54.0698C53.8386 102.034 53.6167 101.942 53.4532 101.779C53.2896 101.615 53.1978 101.393 53.1978 101.162C53.1978 100.931 53.2896 100.709 53.4532 100.545C53.6167 100.382 53.8386 100.29 54.0698 100.29H61.8751C62.1064 100.29 62.3282 100.382 62.4917 100.545C62.6553 100.709 62.7472 100.931 62.7472 101.162C62.7472 101.393 62.6553 101.615 62.4917 101.779C62.3282 101.942 62.1064 102.034 61.8751 102.034H61.8402Z" fill="#E76E26"/>
<path d="M37.5003 89.825C37.8169 89.8287 38.1324 89.8638 38.4422 89.9297C38.0343 89.3495 37.4911 88.8777 36.8596 88.5549C36.2282 88.2322 35.5276 88.0683 34.8185 88.0775C34.1094 88.0867 33.4132 88.2687 32.7904 88.6078C32.1675 88.9468 31.6368 89.4327 31.2441 90.0232C30.8514 90.6137 30.6087 91.2911 30.537 91.9966C30.4653 92.7021 30.5667 93.4145 30.8325 94.0719C31.0983 94.7294 31.5204 95.3121 32.0623 95.7695C32.6042 96.227 33.2494 96.5454 33.9422 96.6971C33.4824 96.0446 33.2105 95.2783 33.1562 94.4819C33.102 93.6855 33.2674 92.8895 33.6344 92.1806C34.0014 91.4717 34.556 90.8772 35.2377 90.4618C35.9194 90.0464 36.702 89.8262 37.5003 89.825Z" fill="#0E3039"/>
<path d="M117.733 89.825C118.049 89.8287 118.365 89.8638 118.675 89.9297C118.267 89.3495 117.724 88.8777 117.092 88.5549C116.461 88.2322 115.76 88.0683 115.051 88.0775C114.342 88.0867 113.646 88.2687 113.023 88.6078C112.4 88.9468 111.869 89.4327 111.477 90.0232C111.084 90.6137 110.841 91.2911 110.769 91.9966C110.698 92.7021 110.799 93.4145 111.065 94.0719C111.331 94.7294 111.753 95.3121 112.295 95.7695C112.837 96.227 113.482 96.5454 114.175 96.6971C113.715 96.0446 113.443 95.2783 113.389 94.4819C113.334 93.6855 113.5 92.8895 113.867 92.1806C114.234 91.4717 114.788 90.8772 115.47 90.4618C116.152 90.0464 116.934 89.8262 117.733 89.825Z" fill="#0E3039"/>
<path d="M108.942 69.6629C108.482 69.0104 108.211 68.2441 108.156 67.4477C108.102 66.6513 108.267 65.8553 108.634 65.1464C109.001 64.4375 109.556 63.843 110.238 63.4276C110.919 63.0123 111.702 62.792 112.5 62.7908C112.817 62.7945 113.132 62.8296 113.442 62.8955C113.034 62.3154 112.491 61.8435 111.86 61.5207C111.228 61.198 110.528 61.0341 109.818 61.0433C109.109 61.0525 108.413 61.2346 107.79 61.5736C107.168 61.9127 106.637 62.3985 106.244 62.989C105.851 63.5795 105.609 64.2569 105.537 64.9624C105.465 65.6679 105.567 66.3803 105.833 67.0377C106.098 67.6952 106.52 68.2779 107.062 68.7354C107.604 69.1928 108.249 69.5112 108.942 69.6629Z" fill="#0E3039"/>
<path d="M126.384 81.8719C125.924 81.2194 125.652 80.4531 125.598 79.6567C125.544 78.8603 125.709 78.0643 126.076 77.3554C126.443 76.6465 126.998 76.052 127.68 75.6366C128.361 75.2212 129.144 75.001 129.942 74.9998C130.259 75.0035 130.574 75.0386 130.884 75.1045C130.476 74.5244 129.933 74.0525 129.302 73.7297C128.67 73.407 127.969 73.2431 127.26 73.2523C126.551 73.2615 125.855 73.4436 125.232 73.7826C124.609 74.1216 124.079 74.6075 123.686 75.198C123.293 75.7885 123.051 76.4659 122.979 77.1714C122.907 77.8769 123.009 78.5893 123.274 79.2467C123.54 79.9042 123.962 80.4869 124.504 80.9443C125.046 81.4018 125.691 81.7202 126.384 81.8719Z" fill="#0E3039"/>
<path d="M42.7327 62.7908C43.0494 62.7945 43.3649 62.8296 43.6746 62.8955C43.2667 62.3154 42.7235 61.8435 42.0921 61.5207C41.4606 61.198 40.76 61.0341 40.0509 61.0433C39.3418 61.0525 38.6457 61.2346 38.0228 61.5736C37.4 61.9127 36.8692 62.3985 36.4765 62.989C36.0839 63.5795 35.8412 64.2569 35.7694 64.9624C35.6977 65.6679 35.7991 66.3803 36.0649 67.0377C36.3307 67.6952 36.7528 68.2779 37.2947 68.7354C37.8366 69.1928 38.4819 69.5112 39.1746 69.6629C38.7148 69.0104 38.4429 68.2441 38.3887 67.4477C38.3344 66.6513 38.4998 65.8553 38.8668 65.1464C39.2339 64.4375 39.7885 63.843 40.4701 63.4276C41.1518 63.0123 41.9345 62.792 42.7327 62.7908Z" fill="#0E3039"/>
<path d="M25.2908 74.9998C25.6075 75.0035 25.923 75.0386 26.2327 75.1045C25.8248 74.5244 25.2816 74.0525 24.6502 73.7297C24.0187 73.407 23.3181 73.2431 22.609 73.2523C21.8999 73.2615 21.2038 73.4436 20.5809 73.7826C19.9581 74.1216 19.4273 74.6075 19.0346 75.198C18.642 75.7885 18.3993 76.4659 18.3275 77.1714C18.2558 77.8769 18.3572 78.5893 18.623 79.2467C18.8888 79.9042 19.3109 80.4869 19.8528 80.9443C20.3947 81.4018 21.04 81.7202 21.7327 81.8719C21.2729 81.2194 21.001 80.4531 20.9468 79.6567C20.8925 78.8603 21.0579 78.0643 21.4249 77.3554C21.792 76.6465 22.3466 76.052 23.0282 75.6366C23.7099 75.2212 24.4926 75.001 25.2908 74.9998Z" fill="#0E3039"/>
<path d="M42.7327 116.86C43.0494 116.864 43.3649 116.899 43.6746 116.965C43.2667 116.385 42.7235 115.913 42.0921 115.59C41.4606 115.267 40.76 115.103 40.0509 115.113C39.3418 115.122 38.6457 115.304 38.0228 115.643C37.4 115.982 36.8692 116.468 36.4765 117.058C36.0839 117.649 35.8412 118.326 35.7694 119.032C35.6977 119.737 35.7991 120.45 36.0649 121.107C36.3307 121.765 36.7528 122.347 37.2947 122.805C37.8366 123.262 38.4819 123.581 39.1746 123.732C38.7148 123.08 38.4429 122.313 38.3887 121.517C38.3344 120.721 38.4998 119.925 38.8668 119.216C39.2339 118.507 39.7885 117.912 40.4701 117.497C41.1518 117.082 41.9345 116.861 42.7327 116.86Z" fill="#0E3039"/>
<path d="M25.2908 104.651C25.6075 104.655 25.923 104.69 26.2327 104.756C25.8248 104.176 25.2816 103.704 24.6502 103.381C24.0187 103.058 23.3181 102.894 22.609 102.904C21.8999 102.913 21.2038 103.095 20.5809 103.434C19.9581 103.773 19.4273 104.259 19.0346 104.849C18.642 105.44 18.3993 106.117 18.3275 106.823C18.2558 107.528 18.3572 108.241 18.623 108.898C18.8888 109.556 19.3109 110.138 19.8528 110.596C20.3947 111.053 21.04 111.372 21.7327 111.523C21.2729 110.871 21.001 110.104 20.9468 109.308C20.8925 108.512 21.0579 107.716 21.4249 107.007C21.792 106.298 22.3466 105.703 23.0282 105.288C23.7099 104.873 24.4926 104.652 25.2908 104.651Z" fill="#0E3039"/>
<path d="M112.5 116.86C112.817 116.864 113.132 116.899 113.442 116.965C113.034 116.385 112.491 115.913 111.86 115.59C111.228 115.267 110.528 115.103 109.818 115.113C109.109 115.122 108.413 115.304 107.79 115.643C107.168 115.982 106.637 116.468 106.244 117.058C105.851 117.649 105.609 118.326 105.537 119.032C105.465 119.737 105.567 120.45 105.833 121.107C106.098 121.765 106.52 122.347 107.062 122.805C107.604 123.262 108.249 123.581 108.942 123.732C108.482 123.08 108.211 122.313 108.156 121.517C108.102 120.721 108.267 119.925 108.634 119.216C109.001 118.507 109.556 117.912 110.238 117.497C110.919 117.082 111.702 116.861 112.5 116.86Z" fill="#0E3039"/>
<path d="M129.942 104.651C130.259 104.655 130.574 104.69 130.884 104.756C130.476 104.176 129.933 103.704 129.302 103.381C128.67 103.058 127.969 102.894 127.26 102.904C126.551 102.913 125.855 103.095 125.232 103.434C124.609 103.773 124.079 104.259 123.686 104.849C123.293 105.44 123.051 106.117 122.979 106.823C122.907 107.528 123.009 108.241 123.274 108.898C123.54 109.556 123.962 110.138 124.504 110.596C125.046 111.053 125.691 111.372 126.384 111.523C125.924 110.871 125.652 110.104 125.598 109.308C125.544 108.512 125.709 107.716 126.076 107.007C126.443 106.298 126.998 105.703 127.68 105.288C128.361 104.873 129.144 104.652 129.942 104.651Z" fill="#0E3039"/>
<path d="M39.2443 92.4415C39.2425 91.5415 38.9622 90.6642 38.442 89.9298C38.1323 89.864 37.8168 89.8289 37.5001 89.8252C36.7019 89.8264 35.9193 90.0466 35.2376 90.462C34.5559 90.8774 34.0013 91.4719 33.6343 92.1808C33.2672 92.8896 33.1018 93.6857 33.1561 94.4821C33.2104 95.2785 33.4822 96.0447 33.942 96.6973C34.2517 96.7632 34.5672 96.7982 34.8839 96.8019C36.0403 96.8019 37.1494 96.3425 37.9672 95.5248C38.7849 94.707 39.2443 93.5979 39.2443 92.4415Z" fill="#0E3039"/>
<path d="M119.477 92.4415C119.475 91.5415 119.195 90.6642 118.674 89.9298C118.365 89.864 118.049 89.8289 117.733 89.8252C116.934 89.8264 116.152 90.0466 115.47 90.462C114.788 90.8774 114.234 91.4719 113.867 92.1808C113.5 92.8896 113.334 93.6857 113.389 94.4821C113.443 95.2785 113.715 96.0447 114.174 96.6973C114.484 96.7632 114.8 96.7982 115.116 96.8019C116.273 96.8019 117.382 96.3425 118.2 95.5248C119.017 94.707 119.477 93.5979 119.477 92.4415Z" fill="#0E3039"/>
<path d="M108.14 67.1505C108.141 68.0504 108.422 68.9278 108.942 69.6621C109.252 69.728 109.567 69.7631 109.884 69.7668C110.682 69.7656 111.465 69.5454 112.146 69.13C112.828 68.7146 113.383 68.1201 113.75 67.4112C114.117 66.7023 114.282 65.9063 114.228 65.1099C114.174 64.3135 113.902 63.5472 113.442 62.8947C113.132 62.8288 112.817 62.7937 112.5 62.79C111.344 62.79 110.235 63.2494 109.417 64.0672C108.599 64.8849 108.14 65.994 108.14 67.1505Z" fill="#0E3039"/>
<path d="M125.582 79.3605C125.583 80.2604 125.864 81.1377 126.384 81.8721C126.694 81.938 127.009 81.973 127.326 81.9767C128.124 81.9756 128.907 81.7553 129.588 81.34C130.27 80.9246 130.825 80.3301 131.192 79.6212C131.559 78.9123 131.724 78.1163 131.67 77.3199C131.616 76.5234 131.344 75.7572 130.884 75.1047C130.574 75.0388 130.259 75.0037 129.942 75C128.786 75 127.676 75.4594 126.859 76.2771C126.041 77.0949 125.582 78.204 125.582 79.3605Z" fill="#0E3039"/>
<path d="M44.4768 65.4063C44.4749 64.5064 44.1946 63.629 43.6744 62.8947C43.3647 62.8288 43.0492 62.7937 42.7326 62.79C41.9343 62.7912 41.1517 63.0115 40.47 63.4268C39.7883 63.8422 39.2337 64.4367 38.8667 65.1456C38.4996 65.8545 38.3342 66.6505 38.3885 67.4469C38.4428 68.2434 38.7146 69.0096 39.1744 69.6621C39.4842 69.728 39.7997 69.7631 40.1163 69.7668C41.2728 69.7668 42.3819 69.3074 43.1996 68.4896C44.0173 67.6719 44.4768 66.5628 44.4768 65.4063Z" fill="#0E3039"/>
<path d="M27.0349 77.6163C27.033 76.7163 26.7528 75.839 26.2325 75.1047C25.9228 75.0388 25.6073 75.0037 25.2907 75C24.4924 75.0012 23.7098 75.2214 23.0281 75.6368C22.3464 76.0522 21.7918 76.6467 21.4248 77.3556C21.0577 78.0644 20.8923 78.8605 20.9466 79.6569C21.0009 80.4533 21.2727 81.2195 21.7325 81.8721C22.0423 81.938 22.3578 81.973 22.6744 81.9767C23.8309 81.9767 24.94 81.5173 25.7577 80.6996C26.5755 79.8819 27.0349 78.7727 27.0349 77.6163Z" fill="#0E3039"/>
<path d="M44.4768 119.477C44.4749 118.577 44.1946 117.699 43.6744 116.965C43.3647 116.899 43.0492 116.864 42.7326 116.86C41.9343 116.862 41.1517 117.082 40.47 117.497C39.7883 117.913 39.2337 118.507 38.8667 119.216C38.4996 119.925 38.3342 120.721 38.3885 121.517C38.4428 122.314 38.7146 123.08 39.1744 123.732C39.4842 123.798 39.7997 123.833 40.1163 123.837C41.2728 123.837 42.3819 123.378 43.1996 122.56C44.0173 121.742 44.4768 120.633 44.4768 119.477Z" fill="#0E3039"/>
<path d="M27.0349 107.267C27.033 106.367 26.7528 105.489 26.2325 104.755C25.9228 104.689 25.6073 104.654 25.2907 104.65C24.4924 104.652 23.7098 104.872 23.0281 105.287C22.3464 105.703 21.7918 106.297 21.4248 107.006C21.0577 107.715 20.8923 108.511 20.9466 109.307C21.0009 110.104 21.2727 110.87 21.7325 111.522C22.0423 111.588 22.3578 111.623 22.6744 111.627C23.8309 111.627 24.94 111.168 25.7577 110.35C26.5755 109.532 27.0349 108.423 27.0349 107.267Z" fill="#0E3039"/>
<path d="M114.244 119.477C114.242 118.577 113.962 117.699 113.442 116.965C113.132 116.899 112.817 116.864 112.5 116.86C111.702 116.862 110.919 117.082 110.238 117.497C109.556 117.913 109.001 118.507 108.634 119.216C108.267 119.925 108.102 120.721 108.156 121.517C108.21 122.314 108.482 123.08 108.942 123.732C109.252 123.798 109.567 123.833 109.884 123.837C111.04 123.837 112.149 123.378 112.967 122.56C113.785 121.742 114.244 120.633 114.244 119.477Z" fill="#0E3039"/>
<path d="M131.686 107.267C131.684 106.367 131.404 105.489 130.884 104.755C130.574 104.689 130.259 104.654 129.942 104.65C129.144 104.652 128.361 104.872 127.679 105.287C126.998 105.703 126.443 106.297 126.076 107.006C125.709 107.715 125.544 108.511 125.598 109.307C125.652 110.104 125.924 110.87 126.384 111.522C126.694 111.588 127.009 111.623 127.326 111.627C128.482 111.627 129.591 111.168 130.409 110.35C131.227 109.532 131.686 108.423 131.686 107.267Z" fill="#0E3039"/>
<path d="M34.8839 97.6741C33.849 97.6741 32.8374 97.3672 31.9769 96.7923C31.1164 96.2173 30.4457 95.4001 30.0497 94.444C29.6536 93.4878 29.55 92.4357 29.7519 91.4207C29.9538 90.4057 30.4522 89.4734 31.184 88.7416C31.9157 88.0098 32.8481 87.5114 33.8631 87.3095C34.8781 87.1076 35.9302 87.2113 36.8863 87.6073C37.8425 88.0033 38.6597 88.674 39.2346 89.5345C39.8096 90.395 40.1165 91.4066 40.1165 92.4415C40.1165 93.8293 39.5652 95.1602 38.5839 96.1415C37.6026 97.1228 36.2717 97.6741 34.8839 97.6741ZM34.8839 88.9532C34.194 88.9532 33.5196 89.1578 32.9459 89.5411C32.3722 89.9244 31.9251 90.4692 31.6611 91.1066C31.3971 91.744 31.328 92.4454 31.4626 93.1221C31.5972 93.7988 31.9294 94.4203 32.4173 94.9082C32.9051 95.3961 33.5267 95.7283 34.2034 95.8629C34.8801 95.9975 35.5815 95.9284 36.2189 95.6644C36.8563 95.4004 37.4011 94.9532 37.7844 94.3796C38.1677 93.8059 38.3723 93.1315 38.3723 92.4415C38.3723 91.5164 38.0048 90.6291 37.3506 89.9749C36.6964 89.3207 35.8091 88.9532 34.8839 88.9532Z" fill="#E76E26"/>
<path d="M115.116 97.6741C114.081 97.6741 113.07 97.3672 112.209 96.7923C111.349 96.2173 110.678 95.4001 110.282 94.444C109.886 93.4878 109.782 92.4357 109.984 91.4207C110.186 90.4057 110.685 89.4734 111.416 88.7416C112.148 88.0098 113.081 87.5114 114.096 87.3095C115.111 87.1076 116.163 87.2113 117.119 87.6073C118.075 88.0033 118.892 88.674 119.467 89.5345C120.042 90.395 120.349 91.4066 120.349 92.4415C120.349 93.8293 119.798 95.1602 118.816 96.1415C117.835 97.1228 116.504 97.6741 115.116 97.6741ZM115.116 88.9532C114.426 88.9532 113.752 89.1578 113.178 89.5411C112.605 89.9244 112.158 90.4692 111.894 91.1066C111.629 91.744 111.56 92.4454 111.695 93.1221C111.83 93.7988 112.162 94.4203 112.65 94.9082C113.138 95.3961 113.759 95.7283 114.436 95.8629C115.112 95.9975 115.814 95.9284 116.451 95.6644C117.089 95.4004 117.634 94.9532 118.017 94.3796C118.4 93.8059 118.605 93.1315 118.605 92.4415C118.605 91.5164 118.237 90.6291 117.583 89.9749C116.929 89.3207 116.042 88.9532 115.116 88.9532Z" fill="#E76E26"/>
<path d="M109.884 70.6389C108.849 70.6389 107.837 70.3321 106.977 69.7571C106.116 69.1821 105.446 68.3649 105.05 67.4088C104.654 66.4527 104.55 65.4006 104.752 64.3856C104.954 63.3706 105.452 62.4382 106.184 61.7064C106.916 60.9746 107.848 60.4763 108.863 60.2744C109.878 60.0725 110.93 60.1761 111.886 60.5721C112.842 60.9682 113.66 61.6388 114.235 62.4993C114.81 63.3598 115.116 64.3715 115.116 65.4064C115.116 66.7941 114.565 68.1251 113.584 69.1064C112.603 70.0877 111.272 70.6389 109.884 70.6389ZM109.884 61.918C109.194 61.918 108.52 62.1226 107.946 62.5059C107.372 62.8892 106.925 63.434 106.661 64.0714C106.397 64.7089 106.328 65.4103 106.463 66.0869C106.597 66.7636 106.929 67.3852 107.417 67.873C107.905 68.3609 108.527 68.6931 109.203 68.8277C109.88 68.9623 110.581 68.8932 111.219 68.6292C111.856 68.3652 112.401 67.9181 112.784 67.3444C113.168 66.7708 113.372 66.0963 113.372 65.4064C113.372 64.4812 113.005 63.5939 112.351 62.9397C111.696 62.2855 110.809 61.918 109.884 61.918Z" fill="#E76E26"/>
<path d="M127.326 82.8489C126.291 82.8489 125.279 82.542 124.419 81.9671C123.558 81.3921 122.888 80.5749 122.492 79.6188C122.096 78.6626 121.992 77.6105 122.194 76.5955C122.396 75.5805 122.894 74.6482 123.626 73.9164C124.358 73.1846 125.29 72.6862 126.305 72.4843C127.32 72.2824 128.372 72.3861 129.328 72.7821C130.284 73.1781 131.102 73.8488 131.677 74.7093C132.251 75.5698 132.558 76.5814 132.558 77.6163C132.558 79.0041 132.007 80.335 131.026 81.3163C130.045 82.2976 128.714 82.8489 127.326 82.8489ZM127.326 74.128C126.636 74.128 125.961 74.3326 125.388 74.7159C124.814 75.0992 124.367 75.644 124.103 76.2814C123.839 76.9188 123.77 77.6202 123.904 78.2969C124.039 78.9736 124.371 79.5951 124.859 80.083C125.347 80.5709 125.969 80.9031 126.645 81.0377C127.322 81.1723 128.023 81.1032 128.661 80.8392C129.298 80.5752 129.843 80.128 130.226 79.5544C130.61 78.9807 130.814 78.3063 130.814 77.6163C130.814 76.6912 130.447 75.8039 129.792 75.1497C129.138 74.4955 128.251 74.128 127.326 74.128Z" fill="#E76E26"/>
<path d="M40.1164 70.6389C39.0814 70.6389 38.0698 70.3321 37.2093 69.7571C36.3488 69.1821 35.6781 68.3649 35.2821 67.4088C34.8861 66.4527 34.7824 65.4006 34.9843 64.3856C35.1862 63.3706 35.6846 62.4382 36.4164 61.7064C37.1482 60.9746 38.0805 60.4763 39.0955 60.2744C40.1105 60.0725 41.1626 60.1761 42.1188 60.5721C43.0749 60.9682 43.8921 61.6388 44.4671 62.4993C45.042 63.3598 45.3489 64.3715 45.3489 65.4064C45.3489 66.7941 44.7976 68.1251 43.8163 69.1064C42.835 70.0877 41.5041 70.6389 40.1164 70.6389ZM40.1164 61.918C39.4264 61.918 38.752 62.1226 38.1783 62.5059C37.6047 62.8892 37.1575 63.434 36.8935 64.0714C36.6295 64.7089 36.5604 65.4103 36.695 66.0869C36.8296 66.7636 37.1618 67.3852 37.6497 67.873C38.1376 68.3609 38.7591 68.6931 39.4358 68.8277C40.1125 68.9623 40.8139 68.8932 41.4513 68.6292C42.0887 68.3652 42.6335 67.9181 43.0168 67.3444C43.4001 66.7708 43.6047 66.0963 43.6047 65.4064C43.6047 64.4812 43.2372 63.5939 42.583 62.9397C41.9288 62.2855 41.0415 61.918 40.1164 61.918Z" fill="#E76E26"/>
<path d="M22.6745 82.8489C21.6396 82.8489 20.6279 82.542 19.7674 81.9671C18.9069 81.3921 18.2362 80.5749 17.8402 79.6188C17.4442 78.6626 17.3405 77.6105 17.5424 76.5955C17.7443 75.5805 18.2427 74.6482 18.9745 73.9164C19.7063 73.1846 20.6386 72.6862 21.6536 72.4843C22.6687 72.2824 23.7207 72.3861 24.6769 72.7821C25.633 73.1781 26.4502 73.8488 27.0252 74.7093C27.6001 75.5698 27.907 76.5814 27.907 77.6163C27.907 79.0041 27.3557 80.335 26.3744 81.3163C25.3931 82.2976 24.0622 82.8489 22.6745 82.8489ZM22.6745 74.128C21.9845 74.128 21.3101 74.3326 20.7364 74.7159C20.1628 75.0992 19.7156 75.644 19.4516 76.2814C19.1876 76.9188 19.1185 77.6202 19.2531 78.2969C19.3877 78.9736 19.7199 79.5951 20.2078 80.083C20.6957 80.5709 21.3172 80.9031 21.9939 81.0377C22.6706 81.1723 23.372 81.1032 24.0094 80.8392C24.6468 80.5752 25.1916 80.128 25.5749 79.5544C25.9582 78.9807 26.1628 78.3063 26.1628 77.6163C26.1628 76.6912 25.7953 75.8039 25.1411 75.1497C24.4869 74.4955 23.5996 74.128 22.6745 74.128Z" fill="#E76E26"/>
<path d="M40.1164 124.709C39.0814 124.709 38.0698 124.402 37.2093 123.827C36.3488 123.252 35.6781 122.435 35.2821 121.479C34.8861 120.523 34.7824 119.471 34.9843 118.456C35.1862 117.441 35.6846 116.509 36.4164 115.777C37.1482 115.045 38.0805 114.547 39.0955 114.345C40.1105 114.143 41.1626 114.246 42.1188 114.642C43.0749 115.038 43.8921 115.709 44.4671 116.57C45.042 117.43 45.3489 118.442 45.3489 119.477C45.3489 120.864 44.7976 122.195 43.8163 123.177C42.835 124.158 41.5041 124.709 40.1164 124.709ZM40.1164 115.988C39.4264 115.988 38.752 116.193 38.1783 116.576C37.6047 116.96 37.1575 117.504 36.8935 118.142C36.6295 118.779 36.5604 119.481 36.695 120.157C36.8296 120.834 37.1618 121.455 37.6497 121.943C38.1376 122.431 38.7591 122.763 39.4358 122.898C40.1125 123.033 40.8139 122.964 41.4513 122.7C42.0887 122.435 42.6335 121.988 43.0168 121.415C43.4001 120.841 43.6047 120.167 43.6047 119.477C43.6047 118.552 43.2372 117.664 42.583 117.01C41.9288 116.356 41.0415 115.988 40.1164 115.988Z" fill="#E76E26"/>
<path d="M22.6745 112.499C21.6396 112.499 20.6279 112.192 19.7674 111.617C18.9069 111.042 18.2362 110.225 17.8402 109.269C17.4442 108.313 17.3405 107.261 17.5424 106.246C17.7443 105.231 18.2427 104.299 18.9745 103.567C19.7063 102.835 20.6386 102.337 21.6536 102.135C22.6687 101.933 23.7207 102.036 24.6769 102.432C25.633 102.829 26.4502 103.499 27.0252 104.36C27.6001 105.22 27.907 106.232 27.907 107.267C27.907 108.655 27.3557 109.985 26.3744 110.967C25.3931 111.948 24.0622 112.499 22.6745 112.499ZM22.6745 103.778C21.9845 103.778 21.3101 103.983 20.7364 104.366C20.1628 104.75 19.7156 105.294 19.4516 105.932C19.1876 106.569 19.1185 107.271 19.2531 107.947C19.3877 108.624 19.7199 109.246 20.2078 109.733C20.6957 110.221 21.3172 110.553 21.9939 110.688C22.6706 110.823 23.372 110.754 24.0094 110.49C24.6468 110.226 25.1916 109.778 25.5749 109.205C25.9582 108.631 26.1628 107.957 26.1628 107.267C26.1628 106.342 25.7953 105.454 25.1411 104.8C24.4869 104.146 23.5996 103.778 22.6745 103.778Z" fill="#E76E26"/>
<path d="M109.884 124.709C108.849 124.709 107.837 124.402 106.977 123.827C106.116 123.252 105.446 122.435 105.05 121.479C104.654 120.523 104.55 119.471 104.752 118.456C104.954 117.441 105.452 116.509 106.184 115.777C106.916 115.045 107.848 114.547 108.863 114.345C109.878 114.143 110.93 114.246 111.886 114.642C112.842 115.038 113.66 115.709 114.235 116.57C114.81 117.43 115.116 118.442 115.116 119.477C115.116 120.864 114.565 122.195 113.584 123.177C112.603 124.158 111.272 124.709 109.884 124.709ZM109.884 115.988C109.194 115.988 108.52 116.193 107.946 116.576C107.372 116.96 106.925 117.504 106.661 118.142C106.397 118.779 106.328 119.481 106.463 120.157C106.597 120.834 106.929 121.455 107.417 121.943C107.905 122.431 108.527 122.763 109.203 122.898C109.88 123.033 110.581 122.964 111.219 122.7C111.856 122.435 112.401 121.988 112.784 121.415C113.168 120.841 113.372 120.167 113.372 119.477C113.372 118.552 113.005 117.664 112.351 117.01C111.696 116.356 110.809 115.988 109.884 115.988Z" fill="#E76E26"/>
<path d="M127.326 112.499C126.291 112.499 125.279 112.192 124.419 111.617C123.558 111.042 122.888 110.225 122.492 109.269C122.096 108.313 121.992 107.261 122.194 106.246C122.396 105.231 122.894 104.299 123.626 103.567C124.358 102.835 125.29 102.337 126.305 102.135C127.32 101.933 128.372 102.036 129.328 102.432C130.284 102.829 131.102 103.499 131.677 104.36C132.251 105.22 132.558 106.232 132.558 107.267C132.558 108.655 132.007 109.985 131.026 110.967C130.045 111.948 128.714 112.499 127.326 112.499ZM127.326 103.778C126.636 103.778 125.961 103.983 125.388 104.366C124.814 104.75 124.367 105.294 124.103 105.932C123.839 106.569 123.77 107.271 123.904 107.947C124.039 108.624 124.371 109.246 124.859 109.733C125.347 110.221 125.969 110.553 126.645 110.688C127.322 110.823 128.023 110.754 128.661 110.49C129.298 110.226 129.843 109.778 130.226 109.205C130.61 108.631 130.814 107.957 130.814 107.267C130.814 106.342 130.447 105.454 129.792 104.8C129.138 104.146 128.251 103.778 127.326 103.778Z" fill="#E76E26"/>
<path d="M110.756 93.3135H102.907C102.676 93.3135 102.454 93.2216 102.291 93.0581C102.127 92.8945 102.035 92.6727 102.035 92.4414C102.035 92.2101 102.127 91.9883 102.291 91.8248C102.454 91.6612 102.676 91.5693 102.907 91.5693H110.756C110.987 91.5693 111.209 91.6612 111.373 91.8248C111.536 91.9883 111.628 92.2101 111.628 92.4414C111.628 92.6727 111.536 92.8945 111.373 93.0581C111.209 93.2216 110.987 93.3135 110.756 93.3135Z" fill="#E76E26"/>
<path d="M98.5466 93.3135H90.6978C90.4665 93.3135 90.2447 93.2216 90.0811 93.0581C89.9176 92.8945 89.8257 92.6727 89.8257 92.4414C89.8257 92.2101 89.9176 91.9883 90.0811 91.8248C90.2447 91.6612 90.4665 91.5693 90.6978 91.5693H98.5466C98.7779 91.5693 98.9997 91.6612 99.1633 91.8248C99.3268 91.9883 99.4187 92.2101 99.4187 92.4414C99.4187 92.6727 99.3268 92.8945 99.1633 93.0581C98.9997 93.2216 98.7779 93.3135 98.5466 93.3135Z" fill="#E76E26"/>
<path d="M100.291 75.8719H90.7764C90.5451 75.8719 90.3233 75.7801 90.1597 75.6165C89.9962 75.453 89.9043 75.2311 89.9043 74.9998C89.9043 74.7685 89.9962 74.5467 90.1597 74.3832C90.3233 74.2196 90.5451 74.1277 90.7764 74.1277H99.9334L105.776 68.276C105.941 68.1118 106.163 68.0195 106.396 68.0195C106.628 68.0195 106.851 68.1118 107.015 68.276C107.179 68.4402 107.271 68.663 107.271 68.8952C107.271 69.1274 107.179 69.3502 107.015 69.5144L100.91 75.619C100.829 75.6999 100.732 75.7638 100.626 75.8072C100.519 75.8506 100.406 75.8726 100.291 75.8719Z" fill="#E76E26"/>
<path d="M105.523 84.593H90.7764C90.5451 84.593 90.3233 84.5011 90.1597 84.3376C89.9962 84.174 89.9043 83.9522 89.9043 83.7209C89.9043 83.4896 89.9962 83.2678 90.1597 83.1042C90.3233 82.9407 90.5451 82.8488 90.7764 82.8488H105.166L111.009 76.9971C111.09 76.9162 111.187 76.8523 111.293 76.8089C111.4 76.7655 111.513 76.7435 111.628 76.7442H122.965C123.197 76.7442 123.418 76.836 123.582 76.9996C123.746 77.1631 123.837 77.385 123.837 77.6162C123.837 77.8475 123.746 78.0694 123.582 78.2329C123.418 78.3965 123.197 78.4883 122.965 78.4883H111.986L106.143 84.3401C106.061 84.4209 105.965 84.4849 105.858 84.5283C105.752 84.5717 105.638 84.5937 105.523 84.593Z" fill="#E76E26"/>
<path d="M106.396 116.861C106.281 116.861 106.167 116.839 106.061 116.796C105.955 116.752 105.858 116.688 105.776 116.608L99.9334 110.756H90.7764C90.5451 110.756 90.3233 110.664 90.1597 110.5C89.9962 110.337 89.9043 110.115 89.9043 109.884C89.9043 109.653 89.9962 109.431 90.1597 109.267C90.3233 109.104 90.5451 109.012 90.7764 109.012H100.291C100.406 109.011 100.519 109.033 100.626 109.076C100.732 109.12 100.829 109.184 100.91 109.265L107.015 115.369C107.097 115.45 107.161 115.547 107.206 115.653C107.25 115.759 107.273 115.873 107.273 115.988C107.273 116.104 107.25 116.218 107.206 116.324C107.161 116.43 107.097 116.527 107.015 116.608C106.933 116.688 106.837 116.752 106.73 116.796C106.624 116.839 106.51 116.861 106.396 116.861Z" fill="#E76E26"/>
<path d="M122.965 108.139H111.628C111.513 108.14 111.4 108.118 111.293 108.074C111.187 108.031 111.09 107.967 111.009 107.886L105.166 102.034H90.7764C90.5451 102.034 90.3233 101.942 90.1597 101.779C89.9962 101.615 89.9043 101.393 89.9043 101.162C89.9043 100.931 89.9962 100.709 90.1597 100.545C90.3233 100.382 90.5451 100.29 90.7764 100.29H105.523C105.638 100.289 105.752 100.311 105.858 100.355C105.965 100.398 106.061 100.462 106.143 100.543L111.986 106.395H122.965C123.197 106.395 123.418 106.487 123.582 106.65C123.746 106.814 123.837 107.036 123.837 107.267C123.837 107.498 123.746 107.72 123.582 107.883C123.418 108.047 123.197 108.139 122.965 108.139Z" fill="#E76E26"/>
<path d="M75 118.168C74.6531 118.168 74.3204 118.03 74.075 117.785C73.8297 117.54 73.6919 117.207 73.6919 116.86V72.3833C73.6919 72.0364 73.8297 71.7037 74.075 71.4583C74.3204 71.213 74.6531 71.0752 75 71.0752C75.347 71.0752 75.6797 71.213 75.925 71.4583C76.1704 71.7037 76.3082 72.0364 76.3082 72.3833V116.86C76.3082 117.207 76.1704 117.54 75.925 117.785C75.6797 118.03 75.347 118.168 75 118.168Z" fill="white"/>
<path d="M149.128 57.5575C149.014 57.5582 148.9 57.5362 148.793 57.4928C148.687 57.4494 148.591 57.3854 148.509 57.3046L141.532 50.3279C141.368 50.1636 141.276 49.9409 141.276 49.7087C141.276 49.4764 141.368 49.2537 141.532 49.0895C141.697 48.9253 141.919 48.833 142.152 48.833C142.384 48.833 142.607 48.9253 142.771 49.0895L149.747 56.0662C149.829 56.1473 149.894 56.2438 149.938 56.35C149.983 56.4563 150.005 56.5703 150.005 56.6854C150.005 56.8005 149.983 56.9145 149.938 57.0208C149.894 57.1271 149.829 57.2235 149.747 57.3046C149.666 57.3854 149.569 57.4494 149.463 57.4928C149.357 57.5362 149.243 57.5582 149.128 57.5575Z" fill="#A09CAD"/>
<path d="M142.152 57.5575C142.037 57.5582 141.923 57.5362 141.817 57.4928C141.711 57.4494 141.614 57.3854 141.532 57.3046C141.451 57.2235 141.386 57.1271 141.341 57.0208C141.297 56.9145 141.274 56.8005 141.274 56.6854C141.274 56.5703 141.297 56.4563 141.341 56.35C141.386 56.2438 141.451 56.1473 141.532 56.0662L148.509 49.0895C148.59 49.0082 148.687 48.9437 148.793 48.8997C148.899 48.8557 149.013 48.833 149.128 48.833C149.243 48.833 149.357 48.8557 149.463 48.8997C149.57 48.9437 149.666 49.0082 149.747 49.0895C149.829 49.1708 149.893 49.2673 149.937 49.3736C149.981 49.4798 150.004 49.5937 150.004 49.7087C150.004 49.8237 149.981 49.9375 149.937 50.0438C149.893 50.15 149.829 50.2465 149.747 50.3279L142.771 57.3046C142.689 57.3854 142.593 57.4494 142.486 57.4928C142.38 57.5362 142.266 57.5582 142.152 57.5575Z" fill="#A09CAD"/>
<path d="M68.0233 141.279C67.9085 141.28 67.7948 141.258 67.6885 141.214C67.5822 141.171 67.4856 141.107 67.4041 141.026L60.4274 134.05C60.2632 133.885 60.1709 133.663 60.1709 133.43C60.1709 133.198 60.2632 132.975 60.4274 132.811C60.5916 132.647 60.8143 132.555 61.0466 132.555C61.2788 132.555 61.5015 132.647 61.6657 132.811L68.6425 139.788C68.7242 139.869 68.7891 139.965 68.8334 140.072C68.8777 140.178 68.9005 140.292 68.9005 140.407C68.9005 140.522 68.8777 140.636 68.8334 140.742C68.7891 140.849 68.7242 140.945 68.6425 141.026C68.561 141.107 68.4644 141.171 68.3581 141.214C68.2518 141.258 68.1381 141.28 68.0233 141.279Z" fill="#A09CAD"/>
<path d="M61.0466 141.279C60.9318 141.28 60.818 141.258 60.7118 141.214C60.6055 141.171 60.5089 141.107 60.4274 141.026C60.3457 140.945 60.2808 140.849 60.2365 140.742C60.1922 140.636 60.1694 140.522 60.1694 140.407C60.1694 140.292 60.1922 140.178 60.2365 140.072C60.2808 139.965 60.3457 139.869 60.4274 139.788L67.4041 132.811C67.5684 132.647 67.7911 132.555 68.0233 132.555C68.2556 132.555 68.4783 132.647 68.6425 132.811C68.8067 132.975 68.899 133.198 68.899 133.43C68.899 133.663 68.8067 133.885 68.6425 134.05L61.6658 141.026C61.5843 141.107 61.4876 141.171 61.3814 141.214C61.2751 141.258 61.1614 141.28 61.0466 141.279Z" fill="#A09CAD"/>
<path d="M138.663 125.581C138.548 125.582 138.434 125.56 138.328 125.516C138.222 125.473 138.125 125.409 138.044 125.328L131.067 118.351C130.903 118.187 130.811 117.964 130.811 117.732C130.811 117.5 130.903 117.277 131.067 117.113C131.231 116.949 131.454 116.856 131.686 116.856C131.918 116.856 132.141 116.949 132.305 117.113L139.282 124.09C139.364 124.171 139.429 124.267 139.473 124.373C139.517 124.48 139.54 124.594 139.54 124.709C139.54 124.824 139.517 124.938 139.473 125.044C139.429 125.151 139.364 125.247 139.282 125.328C139.201 125.409 139.104 125.473 138.998 125.516C138.892 125.56 138.778 125.582 138.663 125.581Z" fill="#A09CAD"/>
<path d="M131.686 125.581C131.571 125.582 131.458 125.56 131.351 125.516C131.245 125.473 131.149 125.409 131.067 125.328C130.985 125.247 130.92 125.151 130.876 125.044C130.832 124.938 130.809 124.824 130.809 124.709C130.809 124.594 130.832 124.48 130.876 124.373C130.92 124.267 130.985 124.171 131.067 124.09L138.044 117.113C138.208 116.949 138.431 116.856 138.663 116.856C138.895 116.856 139.118 116.949 139.282 117.113C139.446 117.277 139.539 117.5 139.539 117.732C139.539 117.964 139.446 118.187 139.282 118.351L132.305 125.328C132.224 125.409 132.127 125.473 132.021 125.516C131.915 125.56 131.801 125.582 131.686 125.581Z" fill="#A09CAD"/>
<path d="M7.84899 90.6972C7.73421 90.6978 7.62044 90.6758 7.51418 90.6324C7.40793 90.589 7.31129 90.5251 7.2298 90.4442L0.253057 83.4675C0.0888389 83.3033 -0.00341797 83.0806 -0.00341797 82.8483C-0.00341796 82.6161 0.088839 82.3933 0.253057 82.2291C0.417276 82.0649 0.640004 81.9727 0.872243 81.9727C1.10448 81.9727 1.32721 82.0649 1.49143 82.2291L8.46817 89.2059C8.54991 89.2869 8.61479 89.3834 8.65907 89.4897C8.70334 89.5959 8.72614 89.7099 8.72614 89.8251C8.72614 89.9402 8.70334 90.0542 8.65907 90.1604C8.61479 90.2667 8.54991 90.3632 8.46817 90.4442C8.38668 90.5251 8.29004 90.589 8.18379 90.6324C8.07754 90.6758 7.96376 90.6978 7.84899 90.6972Z" fill="#A09CAD"/>
<path d="M0.872267 90.6972C0.757494 90.6978 0.643718 90.6758 0.537465 90.6324C0.431211 90.589 0.334569 90.5251 0.253081 90.4442C0.171341 90.3632 0.106462 90.2667 0.0621872 90.1604C0.0179122 90.0542 -0.00488281 89.9402 -0.00488281 89.8251C-0.00488281 89.7099 0.0179122 89.5959 0.0621872 89.4897C0.106462 89.3834 0.171341 89.2869 0.253081 89.2059L7.22983 82.2291C7.31114 82.1478 7.40767 82.0833 7.51391 82.0393C7.62015 81.9953 7.73402 81.9727 7.84901 81.9727C7.964 81.9727 8.07787 81.9953 8.18411 82.0393C8.29035 82.0833 8.38688 82.1478 8.4682 82.2291C8.54951 82.3104 8.61401 82.407 8.65802 82.5132C8.70202 82.6195 8.72467 82.7333 8.72467 82.8483C8.72467 82.9633 8.70202 83.0772 8.65802 83.1834C8.61401 83.2897 8.54951 83.3862 8.4682 83.4675L1.49145 90.4442C1.40996 90.5251 1.31332 90.589 1.20707 90.6324C1.10082 90.6758 0.98704 90.6978 0.872267 90.6972Z" fill="#A09CAD"/>
<path d="M30.5233 18.3134C30.4085 18.314 30.2948 18.292 30.1885 18.2486C30.0822 18.2052 29.9856 18.1413 29.9041 18.0605L22.9274 11.0837C22.8461 11.0024 22.7816 10.9059 22.7376 10.7996C22.6935 10.6934 22.6709 10.5795 22.6709 10.4645C22.6709 10.2323 22.7632 10.0096 22.9274 9.84534C23.0916 9.68112 23.3143 9.58887 23.5466 9.58887C23.6616 9.58887 23.7754 9.61152 23.8817 9.65552C23.9879 9.69953 24.0844 9.76403 24.1657 9.84534L31.1425 16.8221C31.2242 16.9032 31.2891 16.9996 31.3334 17.1059C31.3777 17.2122 31.4005 17.3261 31.4005 17.4413C31.4005 17.5564 31.3777 17.6704 31.3334 17.7767C31.2891 17.8829 31.2242 17.9794 31.1425 18.0605C31.061 18.1413 30.9644 18.2052 30.8581 18.2486C30.7519 18.292 30.6381 18.314 30.5233 18.3134Z" fill="#A09CAD"/>
<path d="M23.5466 18.3134C23.4318 18.314 23.318 18.292 23.2118 18.2486C23.1055 18.2052 23.0089 18.1413 22.9274 18.0605C22.8457 17.9794 22.7808 17.8829 22.7365 17.7767C22.6922 17.6704 22.6694 17.5564 22.6694 17.4413C22.6694 17.3261 22.6922 17.2122 22.7365 17.1059C22.7808 16.9996 22.8457 16.9032 22.9274 16.8221L29.9041 9.84534C30.0684 9.68112 30.2911 9.58887 30.5233 9.58887C30.7556 9.58887 30.9783 9.68112 31.1425 9.84534C31.3067 10.0096 31.399 10.2323 31.399 10.4645C31.399 10.6968 31.3067 10.9195 31.1425 11.0837L24.1658 18.0605C24.0843 18.1413 23.9876 18.2052 23.8814 18.2486C23.7751 18.292 23.6614 18.314 23.5466 18.3134Z" fill="#A09CAD"/>
<path d="M90.6976 8.72059C90.5828 8.72126 90.4691 8.69926 90.3628 8.65586C90.2566 8.61246 90.1599 8.54851 90.0784 8.46768L83.1017 1.49094C82.9375 1.32672 82.8452 1.10399 82.8452 0.871755C82.8452 0.639515 82.9375 0.416787 83.1017 0.252569C83.2659 0.0883506 83.4886 -0.00390625 83.7209 -0.00390625C83.9531 -0.00390625 84.1758 0.0883506 84.3401 0.252569L91.3168 7.22931C91.3985 7.31039 91.4634 7.40684 91.5077 7.51311C91.552 7.61938 91.5748 7.73337 91.5748 7.8485C91.5748 7.96363 91.552 8.07761 91.5077 8.18389C91.4634 8.29016 91.3985 8.38661 91.3168 8.46768C91.2353 8.54851 91.1387 8.61246 91.0324 8.65586C90.9262 8.69926 90.8124 8.72126 90.6976 8.72059Z" fill="#A09CAD"/>
<path d="M83.7209 8.72059C83.6061 8.72126 83.4924 8.69926 83.3861 8.65586C83.2798 8.61246 83.1832 8.54851 83.1017 8.46768C83.02 8.38661 82.9551 8.29016 82.9108 8.18389C82.8665 8.07761 82.8438 7.96363 82.8438 7.8485C82.8438 7.73337 82.8665 7.61938 82.9108 7.51311C82.9551 7.40684 83.02 7.31039 83.1017 7.22931L90.0785 0.252569C90.2427 0.0883506 90.4654 -0.00390626 90.6976 -0.00390625C90.9299 -0.00390624 91.1526 0.0883507 91.3168 0.252569C91.481 0.416787 91.5733 0.639515 91.5733 0.871755C91.5733 1.10399 91.481 1.32672 91.3168 1.49094L84.3401 8.46768C84.2586 8.54851 84.162 8.61246 84.0557 8.65586C83.9494 8.69926 83.8357 8.72126 83.7209 8.72059Z" fill="#A09CAD"/>
</svg>
