<svg width="150" height="142" viewBox="0 0 150 142" fill="none" xmlns="http://www.w3.org/2000/svg">
<path d="M145.267 52.7997C142.442 41.1478 124.964 37.5023 117.28 29.3826C109.353 21.0449 109.431 6.70682 96.8896 1.70071C86.5547 -2.42453 72.7312 10.0297 61.1317 12.8642C49.5322 15.6986 34.854 10.8059 26.2459 19.4053C18.1175 27.5424 22.0683 42.456 18.8414 53.5323C15.7453 64.2597 1.91305 75.6324 4.73008 87.2843C7.54711 98.9361 25.0336 102.625 32.7172 110.701C40.645 119.039 43.6888 136.674 54.6952 139.927C65.3529 143.075 77.2663 130.054 88.8484 127.22C100.431 124.385 116.949 130.421 124.973 122.685C133.258 114.696 127.894 97.6279 131.078 86.5604C134.252 75.8243 148.085 64.4515 145.267 52.7997Z" fill="#E6E6E6"/>
<path d="M77.6151 112.507C102.18 112.507 122.094 92.5925 122.094 68.0272C122.094 43.4619 102.18 23.5479 77.6151 23.5479C53.0498 23.5479 33.1357 43.4619 33.1357 68.0272C33.1357 92.5925 53.0498 112.507 77.6151 112.507Z" fill="#0A394A"/>
<path d="M66.8706 57.2831C84.2263 39.9274 103.091 30.6478 109.021 36.5348C100.635 28.4207 89.3961 23.9272 77.7274 24.023C66.0587 24.1188 54.895 28.7963 46.6432 37.047C38.3913 45.2977 33.7123 56.4608 33.6148 68.1295C33.5174 79.7981 38.0094 91.0378 46.1223 99.4251C40.2353 93.5033 49.5149 74.6388 66.8706 57.2831Z" fill="#095064"/>
<path d="M45.9303 99.2155C47.9304 101.246 50.1208 103.08 52.4714 104.693C54.2157 102.146 56.8321 99.6254 60.4254 100.454C69.2602 102.503 70.8911 83.1331 61.6376 83.6913C54.0674 84.1448 60.0242 76.1298 52.3493 78.4584C51.5248 78.7103 50.6724 78.8596 49.8114 78.9032C44.4738 88.0084 42.7819 95.6746 45.9303 99.2155Z" fill="#E6E6E6"/>
<path d="M48.2155 69.4923C50.579 68.8469 56.8933 66.9892 58.4283 60.265C60.0766 53.1396 50.1952 50.872 52.489 46.5811C55.2449 41.4528 68.6847 53.2006 72.9931 42.8047C74.6153 38.8887 69.0248 34.4757 65.2484 34.9554C60.9401 35.4699 57.0852 32.1383 56.4572 28.9463C50.2898 32.2895 44.9988 37.0414 41.0145 42.8155C37.0303 48.5895 34.4654 55.2226 33.5286 62.175C33.5286 62.4192 33.4675 62.6634 33.4413 62.9076C33.3977 63.2826 33.3541 63.6576 33.3192 64.0327C33.2844 64.4077 33.2756 64.6606 33.2495 64.9746C33.2233 65.2886 33.2059 65.6723 33.1884 66.0299C33.171 66.3875 33.1884 66.7799 33.1884 67.1549C33.1884 67.8178 33.1884 68.4806 33.1884 69.1522C33.1884 69.344 33.1884 69.5446 33.1884 69.7452C33.1884 70.2511 33.2407 70.7569 33.2756 71.2627C33.2756 71.35 33.2756 71.4285 33.2756 71.5157C33.3716 72.6582 33.5024 73.8094 33.6855 75.0042C34.294 78.8228 35.3963 82.5461 36.9648 86.0805C37.2526 86.7346 37.5666 87.3887 37.8893 88.0254C37.916 88.0918 37.9481 88.156 37.9852 88.2172C38.2817 88.8103 38.6044 89.3946 38.9271 89.9615C38.9795 90.0487 39.0318 90.136 39.0754 90.2232C39.3981 90.7726 39.7295 91.3221 40.0696 91.8541L40.2528 92.1332C40.6016 92.6739 40.9592 93.2059 41.3342 93.7205L41.4912 93.9472C41.8837 94.4967 42.2936 95.0374 42.7122 95.5694L42.7995 95.6741C43.7772 96.8892 44.8164 98.0535 45.913 99.1627C42.7646 95.6217 44.4914 87.9556 49.794 78.8155C43.0436 79.1644 41.0726 71.4633 48.2155 69.4923Z" fill="white"/>
<path d="M121.545 61.0938C120.274 52.9715 116.764 45.364 111.411 39.1245C110.43 40.1542 109.521 41.2499 108.69 42.4037C106.579 45.308 102.175 45.4475 99.7766 40.703C98.9317 38.9881 97.6235 37.544 96.0002 36.5342C90.7646 38.6978 85.8215 41.5107 81.2871 44.9068C80.415 48.8576 81.7058 52.5468 88.3428 53.7939C96.5933 55.3551 92.8256 62.8904 87.2875 61.2072C81.8889 59.5675 78.3393 57.9453 74.999 60.7972C71.6587 63.6492 72.1471 70.26 76.6212 71.0449C80.3365 71.6903 83.3018 74.4812 80.7987 78.5279C78.0602 82.9584 76.6648 91.1653 81.165 92.9271C85.5258 94.6713 87.741 91.3485 88.5347 89.674C89.3283 87.9994 88.805 86.5255 90.8022 83.159C92.2849 80.6473 97.4567 79.5396 97.4567 79.5396C97.4567 79.5396 101.713 78.0134 98.7562 70.1205C95.7996 62.2276 106.091 63.5445 108.35 68.8646C110.242 73.3038 105.733 80.6124 113.705 79.3303C117.263 78.746 118.641 80.5513 119.949 81.7636C122.109 75.097 122.656 68.0129 121.545 61.0938Z" fill="#E6E6E6"/>
<path d="M102.253 90.4767C102.524 92.3867 100.143 91.471 98.0582 93.4508C95.9738 95.4305 95.4418 96.573 92.9387 95.3259C90.7148 94.2183 94.6307 88.9679 96.4273 88.3487C98.2239 87.7295 101.861 87.7644 102.253 90.4767Z" fill="#E6E6E6"/>
<path d="M81.4615 44.1998C81.4005 44.4353 81.3394 44.6708 81.2871 44.9062C85.8215 41.5102 90.7645 38.6973 96.0002 36.5337C91.0551 33.4899 83.9733 35.3999 81.4615 44.1998Z" fill="white"/>
<path d="M77.6154 113.379C77.3841 113.379 77.1623 113.287 76.9987 113.124C76.8351 112.96 76.7433 112.738 76.7433 112.507C76.7433 112.276 76.8351 112.054 76.9987 111.89C77.1623 111.727 77.3841 111.635 77.6154 111.635C88.7191 111.621 99.3986 107.368 107.471 99.7435C115.543 92.1191 120.398 81.6995 121.045 70.6146C121.691 59.5297 118.079 48.6165 110.947 40.1058C103.816 31.595 93.7031 26.1293 82.6761 24.826C71.6491 23.5226 60.5407 26.48 51.6215 33.0936C42.7022 39.7072 36.6456 49.4776 34.6897 60.4077C32.7338 71.3378 35.0263 82.6022 41.0986 91.8985C47.1708 101.195 56.5643 107.821 67.359 110.422C67.4779 110.441 67.5917 110.484 67.6932 110.548C67.7947 110.613 67.8818 110.698 67.9489 110.798C68.0161 110.897 68.0618 111.01 68.0833 111.128C68.1048 111.247 68.1016 111.368 68.0738 111.485C68.0461 111.603 67.9944 111.713 67.922 111.809C67.8497 111.905 67.7582 111.985 67.6534 112.044C67.5486 112.103 67.4326 112.14 67.3129 112.152C67.1932 112.164 67.0723 112.151 66.9578 112.114C55.7175 109.403 45.9374 102.5 39.6168 92.8182C33.2963 83.1359 30.9126 71.4051 32.9532 60.0239C34.9937 48.6427 41.3044 38.4707 50.595 31.5874C59.8856 24.7041 71.4546 21.6294 82.9367 22.9919C94.4188 24.3543 104.947 30.051 112.369 38.9174C119.791 47.7837 123.546 59.1501 122.866 70.6928C122.186 82.2355 117.124 93.0827 108.713 101.017C100.302 108.951 89.1781 113.373 77.6154 113.379Z" fill="#34234D"/>
<path d="M77.6152 122.972C74.9683 122.972 72.3248 122.782 69.7049 122.405C69.4758 122.373 69.2554 122.295 69.0563 122.177C68.8571 122.06 68.6832 121.904 68.5443 121.719C68.4054 121.534 68.3043 121.323 68.2468 121.099C68.1893 120.875 68.1765 120.642 68.2091 120.413C68.2418 120.183 68.3192 119.963 68.437 119.764C68.5548 119.565 68.7107 119.391 68.8958 119.252C69.0808 119.113 69.2914 119.012 69.5156 118.954C69.7397 118.897 69.9729 118.884 70.202 118.917C72.6565 119.281 75.1338 119.47 77.6152 119.484C86.6202 119.482 95.467 117.116 103.272 112.624C111.076 108.132 117.565 101.671 122.091 93.8855C126.616 86.1002 129.019 77.2635 129.06 68.2586C129.1 59.2537 126.777 50.3958 122.322 42.57C117.867 34.7442 111.436 28.2246 103.672 23.6626C95.9079 19.1005 87.0827 16.6559 78.0781 16.5728C69.0735 16.4897 60.2047 18.7712 52.3579 23.1892C44.5112 27.6073 37.9613 34.0072 33.3626 41.7494C33.2621 41.9718 33.116 42.1707 32.9338 42.3331C32.7516 42.4955 32.5374 42.6179 32.305 42.6923C32.0725 42.7667 31.827 42.7915 31.5844 42.7651C31.3418 42.7387 31.1074 42.6617 30.8964 42.539C30.6854 42.4163 30.5025 42.2508 30.3595 42.053C30.2165 41.8552 30.1166 41.6296 30.0663 41.3907C30.016 41.1519 30.0163 40.9052 30.0673 40.6665C30.1183 40.4278 30.2189 40.2025 30.3624 40.0051C35.2678 31.7317 42.259 24.8909 50.6371 20.1666C59.0152 15.4424 68.4867 13.0001 78.1046 13.0841C87.7226 13.1681 97.15 15.7754 105.444 20.6453C113.739 25.5152 120.609 32.477 125.369 40.8349C130.129 49.1927 132.612 58.6536 132.569 68.2719C132.527 77.8901 129.96 87.3285 125.125 95.6436C120.291 103.959 113.359 110.859 105.021 115.655C96.6838 120.451 87.2335 122.974 77.6152 122.972Z" fill="#A09CAD"/>
<path d="M37.1306 42.2116L28.0254 47.3136L28.1649 36.874L37.1306 42.2116Z" fill="#A09CAD"/>
<path d="M64.7862 53.2012H29.3945C29.3945 54.6569 29.1078 56.0983 28.5507 57.4432C27.9937 58.7881 27.1772 60.0101 26.1478 61.0394C25.1185 62.0688 23.8965 62.8853 22.5516 63.4423C21.2067 63.9994 19.7653 64.2861 18.3096 64.2861V107.021L47.0903 127.333L75.8711 107.021V64.2861C72.9312 64.2861 70.1117 63.1183 68.0329 61.0394C65.954 58.9606 64.7862 56.1411 64.7862 53.2012Z" fill="#E76E26"/>
<path d="M18.3096 107.013L47.0903 127.333L75.8711 107.013V64.5391L18.3096 107.013Z" fill="#E76E26"/>
<path d="M47.0904 128.205C46.9096 128.206 46.7328 128.151 46.5846 128.048L17.8038 107.727C17.6911 107.647 17.5991 107.541 17.5354 107.418C17.4717 107.295 17.4381 107.159 17.4375 107.02V94.9673C17.4375 94.736 17.5294 94.5142 17.6929 94.3506C17.8565 94.1871 18.0783 94.0952 18.3096 94.0952C18.541 94.0952 18.7628 94.1871 18.9263 94.3506C19.0899 94.5142 19.1818 94.736 19.1818 94.9673V106.567L47.0904 126.269L74.999 106.567V79.1553C74.999 78.924 75.0909 78.7022 75.2545 78.5386C75.418 78.3751 75.6399 78.2832 75.8712 78.2832C76.1025 78.2832 76.3243 78.3751 76.4879 78.5386C76.6515 78.7022 76.7433 78.924 76.7433 79.1553V107.02C76.7427 107.159 76.7091 107.295 76.6455 107.418C76.5818 107.541 76.4898 107.647 76.377 107.727L47.5963 128.048C47.448 128.151 47.2712 128.206 47.0904 128.205Z" fill="#34234D"/>
<path d="M18.3096 90.6075C18.0783 90.6075 17.8565 90.5156 17.6929 90.3521C17.5294 90.1885 17.4375 89.9667 17.4375 89.7354V64.2862C17.4375 64.0549 17.5294 63.8331 17.6929 63.6695C17.8565 63.5059 18.0783 63.4141 18.3096 63.4141C21.0168 63.4094 23.6118 62.332 25.5261 60.4177C27.4404 58.5034 28.5178 55.9084 28.5225 53.2012C28.5225 52.9699 28.6143 52.7481 28.7779 52.5845C28.9415 52.421 29.1633 52.3291 29.3946 52.3291H64.7862C65.0175 52.3291 65.2394 52.421 65.4029 52.5845C65.5665 52.7481 65.6584 52.9699 65.6584 53.2012C65.663 55.9084 66.7405 58.5034 68.6547 60.4177C70.569 62.332 73.164 63.4094 75.8712 63.4141C76.1025 63.4141 76.3243 63.5059 76.4879 63.6695C76.6515 63.8331 76.7433 64.0549 76.7433 64.2862V73.9234C76.7433 74.1547 76.6515 74.3765 76.4879 74.5401C76.3243 74.7037 76.1025 74.7955 75.8712 74.7955C75.6399 74.7955 75.418 74.7037 75.2545 74.5401C75.0909 74.3765 74.999 74.1547 74.999 73.9234V65.1235C72.1392 64.91 69.4509 63.6773 67.423 61.6494C65.3952 59.6216 64.1624 56.9333 63.949 54.0734H30.2319C30.0184 56.9333 28.7857 59.6216 26.7578 61.6494C24.73 63.6773 22.0417 64.91 19.1818 65.1235V89.7354C19.1818 89.9667 19.0899 90.1885 18.9263 90.3521C18.7628 90.5156 18.541 90.6075 18.3096 90.6075Z" fill="#34234D"/>
<path d="M47.0903 119.37C46.7346 119.369 46.3877 119.26 46.0961 119.056L25.1646 104.457C24.9335 104.296 24.7447 104.083 24.6141 103.833C24.4835 103.584 24.415 103.307 24.4146 103.026V70.4255C24.4145 70.0909 24.5107 69.7634 24.6916 69.482C24.8725 69.2005 25.1306 68.9771 25.435 68.8382C29.2047 67.1182 32.2271 64.0958 33.9471 60.3261C34.0859 60.0217 34.3094 59.7636 34.5908 59.5827C34.8723 59.4018 35.1998 59.3056 35.5344 59.3057H58.6462C58.9808 59.3056 59.3083 59.4018 59.5898 59.5827C59.8712 59.7636 60.0947 60.0217 60.2335 60.3261C61.9535 64.0958 64.976 67.1182 68.7457 68.8382C69.0501 68.9771 69.3081 69.2005 69.489 69.482C69.67 69.7634 69.7661 70.0909 69.7661 70.4255V103.026C69.7656 103.307 69.6972 103.584 69.5666 103.833C69.436 104.083 69.2471 104.296 69.016 104.457L48.0846 119.056C47.7929 119.26 47.446 119.369 47.0903 119.37ZM27.9031 102.111L47.0903 115.498L66.2775 102.111V71.5157C62.5561 69.5562 59.5155 66.5156 57.556 62.7942H36.6246C34.6651 66.5156 31.6245 69.5562 27.9031 71.5157V102.111Z" fill="white"/>
<path d="M50.9975 87.8339C51.8328 87.2141 52.5066 86.4024 52.962 85.4673C53.4174 84.5322 53.641 83.5013 53.6139 82.4615C53.5513 80.7999 52.8632 79.2233 51.6875 78.0475C50.5117 76.8717 48.9351 76.1836 47.2735 76.121C45.8914 76.0801 44.5322 76.4804 43.3931 77.2641C42.254 78.0478 41.3941 79.174 40.9382 80.4793C40.4824 81.7847 40.4543 83.2013 40.8579 84.5237C41.2615 85.8462 42.076 87.0056 43.1831 87.8339L40.619 95.9798C40.5505 96.1965 40.5341 96.4262 40.5709 96.6505C40.6077 96.8747 40.6968 97.0872 40.831 97.2706C40.9652 97.454 41.1406 97.6033 41.3432 97.7063C41.5458 97.8093 41.7697 97.8632 41.997 97.8636H52.1836C52.4109 97.8632 52.6349 97.8093 52.8374 97.7063C53.04 97.6033 53.2154 97.454 53.3496 97.2706C53.4838 97.0872 53.5729 96.8747 53.6097 96.6505C53.6465 96.4262 53.6301 96.1965 53.5616 95.9798L50.9975 87.8339Z" fill="#EDEDED"/>
<path d="M47.2732 76.121C45.8911 76.0801 44.532 76.4804 43.3928 77.2641C42.2537 78.0478 41.3938 79.174 40.938 80.4793C40.4821 81.7847 40.454 83.2013 40.8576 84.5237C41.2613 85.8462 42.0757 87.0056 43.1828 87.8339L42.8427 88.9067L53.4218 81.1097C53.074 79.7252 52.2869 78.4907 51.1783 77.5913C50.0698 76.6919 48.6996 76.1761 47.2732 76.121Z" fill="white"/>
<path d="M52.1834 98.7355H41.9968C41.6328 98.7341 41.2742 98.6474 40.9498 98.4823C40.6253 98.3172 40.3442 98.0783 40.1287 97.7849C39.9133 97.4915 39.7697 97.1516 39.7094 96.7927C39.6491 96.4337 39.6738 96.0656 39.7815 95.7179L42.1712 88.139C41.0438 87.1305 40.2531 85.8002 39.9061 84.3279C39.5591 82.8557 39.6724 81.3123 40.2307 79.9065C40.789 78.5007 41.7655 77.3002 43.0281 76.4671C44.2907 75.6341 45.7786 75.2088 47.2907 75.2487C48.7707 75.2856 50.2054 75.7669 51.4083 76.6301C52.6111 77.4932 53.5265 78.6982 54.0354 80.0885C54.5443 81.4788 54.6232 82.9901 54.2618 84.4258C53.9004 85.8615 53.1154 87.1553 52.009 88.139L54.3987 95.7179C54.5064 96.0656 54.5311 96.4337 54.4708 96.7927C54.4105 97.1516 54.2668 97.4915 54.0514 97.7849C53.836 98.0783 53.5548 98.3172 53.2304 98.4823C52.906 98.6474 52.5474 98.7341 52.1834 98.7355ZM47.0901 76.9929C45.9046 76.9893 44.7482 77.3596 43.7854 78.0513C42.8226 78.7429 42.1025 79.7207 41.7276 80.8453C41.3527 81.97 41.3422 83.1842 41.6974 84.3152C42.0526 85.4462 42.7556 86.4364 43.7062 87.1447C43.85 87.2535 43.9565 87.4041 44.0112 87.5759C44.0659 87.7477 44.0659 87.9322 44.0114 88.1041L41.4473 96.2412C41.4199 96.3275 41.4132 96.4191 41.4278 96.5086C41.4424 96.598 41.478 96.6827 41.5315 96.7558C41.5851 96.8289 41.6551 96.8883 41.7359 96.9292C41.8168 96.9701 41.9062 96.9914 41.9968 96.9912H52.1834C52.274 96.9914 52.3634 96.9701 52.4442 96.9292C52.5251 96.8883 52.5951 96.8289 52.6487 96.7558C52.7022 96.6827 52.7377 96.598 52.7524 96.5086C52.767 96.4191 52.7603 96.3275 52.7329 96.2412L50.1688 88.0866C50.1142 87.9148 50.1143 87.7303 50.169 87.5585C50.2236 87.3867 50.3302 87.236 50.474 87.1273C51.1986 86.5905 51.783 85.8869 52.1777 85.0761C52.5725 84.2654 52.7659 83.3714 52.7416 82.47C52.6856 81.0307 52.0887 79.6654 51.0702 78.6469C50.0517 77.6284 48.6864 77.0315 47.2471 76.9755L47.0901 76.9929Z" fill="#34234D"/>
<path d="M102.611 71.6727C101.772 70.8332 100.776 70.1671 99.6793 69.7126C98.583 69.258 97.4078 69.0238 96.221 69.0234C95.0341 69.023 93.8588 69.2564 92.7622 69.7102C91.6655 70.164 90.669 70.8294 89.8294 71.6684C88.134 73.3627 87.181 75.6611 87.1802 78.0581C87.1794 80.455 88.1308 82.7541 89.8251 84.4496L89.9821 84.6066L102.742 71.8384L102.611 71.6727Z" fill="#E76E26"/>
<path d="M90 84.5983L96.2271 90.8254L102.611 84.4413C104.277 82.7746 105.225 80.5223 105.253 78.1659C105.281 75.8094 104.386 73.5355 102.759 71.8301L90 84.5983Z" fill="#E76E26"/>
<path d="M96.2268 91.706C96.112 91.7067 95.9982 91.6847 95.892 91.6413C95.7857 91.5978 95.689 91.5339 95.6076 91.4531L89.2235 85.069C87.4453 83.1956 86.4691 80.7018 86.5028 78.1192C86.5365 75.5365 87.5774 73.0691 89.4038 71.2427C91.2302 69.4163 93.6976 68.3754 96.2803 68.3417C98.863 68.308 101.357 69.2842 103.23 71.0623C105.085 72.9213 106.126 75.4399 106.126 78.0657C106.126 80.6914 105.085 83.21 103.23 85.069L96.846 91.4531C96.7645 91.5339 96.6679 91.5978 96.5616 91.6413C96.4553 91.6847 96.3416 91.7067 96.2268 91.706ZM96.2268 69.9024C94.6064 69.8942 93.0203 70.3689 91.6708 71.266C90.3214 72.1631 89.2699 73.4419 88.6503 74.9392C88.0308 76.4365 87.8714 78.0844 88.1926 79.6727C88.5137 81.261 89.3007 82.7176 90.4532 83.8567L96.2268 89.6303L102.035 83.8305C103.564 82.2999 104.423 80.2248 104.423 78.0613C104.423 75.8978 103.564 73.8227 102.035 72.2921C101.273 71.5303 100.367 70.9276 99.3699 70.5189C98.3728 70.1102 97.3044 69.9036 96.2268 69.9111V69.9024Z" fill="#34234D"/>
<path d="M96.3054 73.6608C95.6941 73.6405 95.0924 73.816 94.5879 74.1618C94.0835 74.5076 93.7027 75.0055 93.5011 75.5829C93.2996 76.1603 93.2878 76.787 93.4675 77.3716C93.6472 77.9562 94.0089 78.4681 94.5 78.8326L93.9157 80.6815L98.948 75.658C98.7625 75.0961 98.4103 74.604 97.9382 74.2472C97.4661 73.8904 96.8966 73.6859 96.3054 73.6608Z" fill="white"/>
<path d="M99.1046 76.4606C99.0929 76.1868 99.0399 75.9163 98.9476 75.6582L93.9154 80.6818L93.3659 82.426C93.3376 82.5217 93.3318 82.6225 93.3491 82.7207C93.3663 82.8189 93.406 82.9118 93.4652 82.9921C93.5243 83.0724 93.6013 83.1378 93.69 83.1834C93.7787 83.2289 93.8767 83.2533 93.9764 83.2546H98.468C98.5683 83.2551 98.6673 83.2319 98.757 83.1869C98.8467 83.1419 98.9244 83.0764 98.9839 82.9956C99.0435 82.9148 99.083 82.8211 99.0995 82.7221C99.1159 82.6232 99.1087 82.5217 99.0785 82.426L97.9447 78.8328C98.3155 78.5607 98.6147 78.2027 98.8167 77.7895C99.0188 77.3763 99.1176 76.9203 99.1046 76.4606Z" fill="#EDEDED"/>
<path d="M114.751 38.1385C113.058 36.4454 110.761 35.4941 108.367 35.4941C105.972 35.4941 103.676 36.4454 101.983 38.1385C100.29 39.8317 99.3384 42.1281 99.3384 44.5226C99.3384 46.9171 100.29 49.2135 101.983 50.9067L102.14 51.0637L114.908 38.3042L114.751 38.1385Z" fill="#E76E26"/>
<path d="M102.14 51.0642L108.367 57.3L114.751 50.9072C116.418 49.2431 117.368 46.993 117.397 44.6379C117.426 42.2829 116.533 40.0098 114.908 38.3047L102.14 51.0642Z" fill="#E76E26"/>
<path d="M108.367 58.1717C108.252 58.1712 108.138 58.1478 108.032 58.1029C107.925 58.058 107.829 57.9924 107.748 57.91L101.364 51.5259C100.443 50.6062 99.7126 49.5142 99.2138 48.3121C98.715 47.11 98.4578 45.8215 98.457 44.52C98.4554 41.8917 99.498 39.3703 101.355 37.5106C103.213 35.6508 105.733 34.6052 108.361 34.6035C110.99 34.6019 113.511 35.6444 115.371 37.5018C116.291 38.4212 117.021 39.5129 117.519 40.7146C118.017 41.9162 118.274 43.2043 118.274 44.5052C118.274 45.806 118.017 47.0941 117.519 48.2958C117.021 49.4974 116.291 50.5891 115.371 51.5085L109.013 57.91C108.929 57.9956 108.828 58.063 108.717 58.1081C108.606 58.1531 108.487 58.1747 108.367 58.1717ZM108.367 36.368C106.75 36.3658 105.168 36.8443 103.822 37.7427C102.477 38.6412 101.429 39.9192 100.811 41.4144C100.194 42.9096 100.034 44.5546 100.353 46.1406C100.672 47.7267 101.455 49.1821 102.603 50.3224L108.367 56.0872L114.141 50.3224C115.67 48.7917 116.529 46.7167 116.529 44.5531C116.529 42.3896 115.67 40.3145 114.141 38.7839C113.386 38.0197 112.487 37.4127 111.496 36.998C110.505 36.5833 109.442 36.3692 108.367 36.368Z" fill="#34234D"/>
<path d="M108.446 40.1185C107.835 40.1002 107.235 40.2771 106.732 40.6236C106.229 40.9701 105.85 41.468 105.649 42.045C105.449 42.6219 105.438 43.2478 105.617 43.8314C105.797 44.4151 106.159 44.9262 106.649 45.2903L106.065 47.1392L111.088 42.107C110.901 41.5467 110.548 41.0565 110.077 40.7013C109.605 40.3462 109.036 40.1429 108.446 40.1185Z" fill="white"/>
<path d="M111.245 42.9273C111.233 42.6507 111.18 42.3773 111.088 42.1162L106.064 47.1485L105.515 48.8928C105.476 48.9909 105.462 49.0971 105.474 49.202C105.486 49.3069 105.524 49.4071 105.585 49.4936C105.645 49.5802 105.726 49.6502 105.821 49.6976C105.915 49.745 106.02 49.7681 106.125 49.7649H110.617C110.722 49.7659 110.825 49.7414 110.919 49.6934C111.012 49.6455 111.092 49.5755 111.152 49.4897C111.212 49.4038 111.25 49.3046 111.264 49.2006C111.277 49.0966 111.264 48.9909 111.228 48.8928L110.094 45.3083C110.462 45.0323 110.759 44.6721 110.959 44.2578C111.159 43.8436 111.257 43.3873 111.245 42.9273Z" fill="#EDEDED"/>
<path d="M70.6382 24.6294C69.8097 23.7488 68.8127 23.0436 67.7065 22.5557C66.6002 22.0678 65.4072 21.8071 64.1983 21.7891C62.9893 21.7711 61.7891 21.9961 60.6688 22.4509C59.5485 22.9056 58.531 23.5808 57.6766 24.4363C56.8222 25.2918 56.1485 26.3103 55.6953 27.4312C55.242 28.5521 55.0186 29.7527 55.0383 30.9616C55.058 32.1705 55.3203 33.3632 55.8097 34.4688C56.2992 35.5743 57.0057 36.5703 57.8874 37.3976L58.0444 37.5546L70.8039 24.7951L70.6382 24.6294Z" fill="#E76E26"/>
<path d="M58.0444 37.5544L64.2715 43.7815L70.6382 37.3974C72.3058 35.7333 73.2551 33.4821 73.2828 31.1264C73.3105 28.7707 72.4144 26.4978 70.7865 24.7949L58.0444 37.5544Z" fill="#E76E26"/>
<path d="M64.2713 44.6533C64.1566 44.6539 64.0428 44.6319 63.9365 44.5885C63.8303 44.5451 63.7336 44.4812 63.6521 44.4003L57.268 38.0162C55.8817 36.6309 54.9375 34.8656 54.5546 32.9435C54.1718 31.0214 54.3676 29.029 55.1173 27.2182C55.867 25.4075 57.1369 23.8597 58.7663 22.7708C60.3957 21.6818 62.3115 21.1006 64.2713 21.1006C66.2312 21.1006 68.1469 21.6818 69.7764 22.7708C71.4058 23.8597 72.6757 25.4075 73.4254 27.2182C74.1751 29.029 74.3709 31.0214 73.988 32.9435C73.6052 34.8656 72.6609 36.6309 71.2747 38.0162L64.8906 44.4003C64.8091 44.4812 64.7124 44.5451 64.6062 44.5885C64.4999 44.6319 64.3861 44.6539 64.2713 44.6533ZM64.2713 22.8496C62.6517 22.8432 61.0668 23.3191 59.7187 24.2169C58.3706 25.1147 57.3204 26.3936 56.702 27.8905C56.0836 29.3875 55.9249 31.0347 56.2463 32.6221C56.5677 34.2096 57.3545 35.6654 58.5065 36.804L64.2713 42.5776L70.0449 36.804C71.1974 35.6649 71.9845 34.2083 72.3056 32.62C72.6267 31.0317 72.4673 29.3838 71.8478 27.8865C71.2283 26.3891 70.1767 25.1103 68.8273 24.2132C67.4778 23.3161 65.8917 22.8414 64.2713 22.8496Z" fill="#34234D"/>
<path d="M64.3498 26.618C63.7388 26.5963 63.137 26.7709 62.6326 27.1162C62.1281 27.4615 61.7475 27.9593 61.5466 28.5367C61.3457 29.1141 61.335 29.7406 61.5162 30.3245C61.6973 30.9084 62.0607 31.4188 62.5532 31.7811L61.9688 33.6388L66.9924 28.6065C66.8065 28.0456 66.4539 27.5547 65.9818 27.1994C65.5096 26.8441 64.9402 26.6413 64.3498 26.618Z" fill="white"/>
<path d="M67.1497 29.4088C67.1371 29.1351 67.0842 28.8647 66.9927 28.6064L61.9692 33.6387L61.4197 35.383C61.3895 35.4787 61.3823 35.5801 61.3987 35.6791C61.4152 35.7781 61.4547 35.8718 61.5143 35.9526C61.5738 36.0333 61.6515 36.0989 61.7412 36.1439C61.8309 36.1889 61.9299 36.2121 62.0302 36.2115H66.5218C66.6215 36.2103 66.7195 36.1859 66.8082 36.1403C66.8969 36.0948 66.9739 36.0293 67.033 35.9491C67.0922 35.8688 67.1319 35.7759 67.1491 35.6777C67.1664 35.5795 67.1606 35.4786 67.1323 35.383L65.9985 31.7898C66.3678 31.5149 66.6654 31.1548 66.8658 30.7403C67.0662 30.3258 67.1636 29.869 67.1497 29.4088Z" fill="#EDEDED"/>
<path d="M128.278 13.9541L130.406 18.2625L135.159 18.9515L131.723 22.3005L132.534 27.0363L128.278 24.8036L124.031 27.0363L124.842 22.3005L121.406 18.9515L126.159 18.2625L128.278 13.9541Z" fill="white"/>
<path d="M132.561 27.9079C132.417 27.9072 132.277 27.8713 132.151 27.8033L128.305 25.7886L124.458 27.8033C124.315 27.8792 124.154 27.9137 123.992 27.903C123.83 27.8922 123.674 27.8365 123.543 27.7422C123.407 27.6453 123.303 27.5117 123.241 27.3571C123.179 27.2026 123.163 27.0336 123.194 26.8701L123.935 22.5879L120.822 19.5615C120.709 19.4496 120.63 19.3094 120.591 19.1557C120.553 19.0021 120.557 18.8408 120.603 18.6894C120.653 18.5356 120.745 18.3986 120.868 18.2939C120.991 18.1892 121.141 18.1208 121.301 18.0963L125.583 17.4422L127.511 13.5524C127.583 13.4073 127.695 13.2852 127.832 13.1999C127.97 13.1145 128.129 13.0693 128.291 13.0693C128.454 13.0693 128.613 13.1145 128.75 13.1999C128.888 13.2852 129 13.4073 129.072 13.5524L130.991 17.4422L135.29 18.0702C135.452 18.0931 135.604 18.1608 135.728 18.2657C135.853 18.3705 135.946 18.5082 135.997 18.6632C136.043 18.8147 136.047 18.9759 136.009 19.1295C135.97 19.2832 135.891 19.4235 135.779 19.5354L132.665 22.5617L133.398 26.8439C133.426 26.9705 133.426 27.1017 133.398 27.2283C133.369 27.3548 133.313 27.4733 133.232 27.5752C133.152 27.6772 133.05 27.7599 132.934 27.8175C132.818 27.875 132.69 27.9059 132.561 27.9079ZM128.305 23.931C128.447 23.9328 128.586 23.9655 128.714 24.0269L131.401 25.4398L130.886 22.4483C130.863 22.3095 130.874 22.1672 130.918 22.0335C130.962 21.8999 131.038 21.7789 131.139 21.6808L133.311 19.5615L130.31 19.1255C130.169 19.1058 130.035 19.0518 129.919 18.9682C129.804 18.8845 129.71 18.7738 129.648 18.6458L128.305 15.9247L126.961 18.6458C126.899 18.7727 126.807 18.8827 126.694 18.9663C126.58 19.0498 126.447 19.1045 126.307 19.1255L123.307 19.5615L125.479 21.6808C125.58 21.7789 125.655 21.8999 125.699 22.0335C125.744 22.1672 125.755 22.3095 125.732 22.4483L125.217 25.4398L127.903 24.0269C128.02 23.9672 128.148 23.9345 128.278 23.931H128.305Z" fill="#A09CAD"/>
<path d="M99.1136 127.333L101.233 131.641L105.986 132.33L102.55 135.679L103.361 140.415L99.1136 138.182L94.8576 140.415L95.6687 135.679L92.2324 132.33L96.9856 131.641L99.1136 127.333Z" fill="white"/>
<path d="M103.361 141.288C103.221 141.288 103.082 141.252 102.96 141.183L99.1138 139.168L95.2677 141.183C95.1274 141.255 94.9704 141.287 94.8132 141.277C94.656 141.267 94.5045 141.214 94.3748 141.125C94.2451 141.035 94.142 140.913 94.0766 140.769C94.0111 140.626 93.9857 140.468 94.0031 140.311L94.7356 136.029L91.6221 132.994C91.5069 132.88 91.4258 132.736 91.3879 132.578C91.35 132.42 91.3568 132.255 91.4076 132.101C91.4583 131.947 91.5509 131.81 91.6751 131.706C91.7993 131.602 91.95 131.534 92.1105 131.511L96.4102 130.883L98.3289 126.993C98.4008 126.846 98.5125 126.723 98.6513 126.637C98.7901 126.55 98.9504 126.505 99.1138 126.505C99.2758 126.506 99.4342 126.553 99.5713 126.639C99.7084 126.725 99.8188 126.848 99.89 126.993L101.817 130.883L106.117 131.511C106.277 131.536 106.427 131.604 106.55 131.709C106.673 131.814 106.764 131.951 106.814 132.104C106.864 132.258 106.87 132.423 106.831 132.58C106.793 132.737 106.712 132.88 106.597 132.994L103.492 136.029L104.225 140.311C104.256 140.474 104.239 140.643 104.178 140.798C104.116 140.953 104.011 141.086 103.876 141.183C103.718 141.267 103.539 141.303 103.361 141.288ZM94.1077 132.941L96.2793 135.061C96.3803 135.159 96.456 135.28 96.5001 135.413C96.5441 135.547 96.5552 135.689 96.5323 135.828L96.0177 138.82L98.7039 137.407C98.829 137.341 98.9682 137.307 99.1095 137.307C99.2507 137.307 99.3899 137.341 99.515 137.407L102.201 138.82L101.687 135.828C101.664 135.689 101.675 135.547 101.719 135.413C101.763 135.28 101.839 135.159 101.94 135.061L104.111 132.941L101.111 132.505C100.971 132.484 100.839 132.43 100.725 132.346C100.611 132.263 100.519 132.153 100.457 132.026L99.1138 129.304L97.7707 132.026C97.7079 132.154 97.6146 132.264 97.499 132.348C97.3835 132.432 97.2492 132.486 97.1079 132.505L94.1077 132.941Z" fill="#A09CAD"/>
<path d="M24.118 119.649L26.2373 123.958L30.9905 124.647L27.5543 128.005L28.3654 132.732L24.118 130.499L19.862 132.732L20.6731 128.005L17.2368 124.647L21.99 123.958L24.118 119.649Z" fill="white"/>
<path d="M19.8616 133.604C19.6799 133.603 19.503 133.545 19.3558 133.439C19.2205 133.342 19.1157 133.208 19.0539 133.053C18.9921 132.899 18.9758 132.73 19.0069 132.566L19.7395 128.284L16.626 125.258C16.5082 125.144 16.4249 124.999 16.3855 124.841C16.3461 124.682 16.3522 124.515 16.4032 124.359C16.4541 124.204 16.5479 124.065 16.6736 123.961C16.7994 123.856 16.9521 123.789 17.1144 123.766L21.4141 123.147L23.3328 119.249C23.4051 119.104 23.5165 118.982 23.6544 118.896C23.7922 118.811 23.9512 118.766 24.1133 118.766C24.2755 118.766 24.4344 118.811 24.5723 118.896C24.7102 118.982 24.8216 119.104 24.8939 119.249L26.8214 123.147L31.121 123.766C31.2825 123.79 31.4342 123.858 31.5589 123.964C31.6835 124.069 31.7761 124.207 31.826 124.363C31.876 124.518 31.8814 124.684 31.8416 124.842C31.8017 125.001 31.7183 125.145 31.6007 125.258L28.4959 128.284L29.2285 132.566C29.257 132.727 29.2399 132.893 29.1791 133.044C29.1183 133.195 29.0162 133.327 28.8845 133.423C28.7527 133.519 28.5966 133.577 28.4339 133.589C28.2711 133.601 28.1083 133.567 27.9639 133.491L24.1177 131.467L20.2715 133.491C20.1449 133.558 20.0049 133.597 19.8616 133.604ZM24.1177 129.627C24.2582 129.627 24.3965 129.663 24.5189 129.732L27.2051 131.136L26.6993 128.145C26.6753 128.006 26.6849 127.865 26.7275 127.731C26.77 127.597 26.8441 127.476 26.9435 127.377L29.1238 125.258L26.1149 124.822C25.9752 124.801 25.8426 124.746 25.7287 124.663C25.6148 124.579 25.5228 124.469 25.4608 124.342L24.1177 121.621L22.7746 124.342C22.7126 124.469 22.6206 124.579 22.5067 124.663C22.3928 124.746 22.2602 124.801 22.1205 124.822L19.1116 125.258L21.2832 127.377C21.3842 127.475 21.4599 127.596 21.5039 127.73C21.548 127.863 21.559 128.006 21.5362 128.145L21.0216 131.136L23.7078 129.732C23.8338 129.664 23.9745 129.628 24.1177 129.627Z" fill="#A09CAD"/>
<path d="M142.154 81.8506L144.308 86.22L149.131 86.9265L145.642 90.3191L146.462 95.1246L142.154 92.8571L137.846 95.1246L138.665 90.3191L135.177 86.9265L140 86.22L142.154 81.8506Z" fill="white"/>
<path d="M146.462 95.9967C146.322 95.9945 146.185 95.9586 146.061 95.892L142.154 93.8425L138.247 95.9356C138.104 96.0116 137.942 96.0461 137.78 96.0353C137.619 96.0245 137.463 95.9688 137.331 95.8746C137.196 95.7776 137.091 95.644 137.029 95.4895C136.967 95.3349 136.951 95.1659 136.982 95.0024L137.732 90.6417L134.566 87.563C134.451 87.4489 134.37 87.305 134.332 87.1473C134.294 86.9897 134.301 86.8246 134.352 86.6706C134.403 86.5166 134.495 86.3798 134.619 86.2755C134.744 86.1713 134.894 86.1037 135.055 86.0804L139.416 85.4437L141.369 81.4842C141.441 81.3367 141.552 81.2124 141.691 81.1253C141.83 81.0383 141.99 80.9922 142.154 80.9922C142.318 80.9922 142.478 81.0383 142.617 81.1253C142.756 81.2124 142.868 81.3367 142.939 81.4842L144.893 85.4699L149.253 86.1065C149.414 86.1299 149.565 86.1974 149.689 86.3017C149.813 86.4059 149.906 86.5428 149.956 86.6967C150.007 86.8507 150.014 87.0158 149.976 87.1735C149.938 87.3311 149.857 87.4751 149.742 87.5892L146.576 90.6679L147.326 95.0286C147.357 95.1921 147.341 95.3611 147.279 95.5156C147.217 95.6702 147.112 95.8038 146.977 95.9007C146.819 95.9846 146.64 96.0181 146.462 95.9967ZM142.154 91.9848C142.297 91.9855 142.438 92.0214 142.564 92.0894L145.311 93.5285L144.779 90.4673C144.756 90.3284 144.767 90.1861 144.811 90.0525C144.855 89.9188 144.931 89.7978 145.032 89.6998L147.256 87.5281L144.186 87.0833C144.046 87.0624 143.914 87.0077 143.8 86.9242C143.686 86.8406 143.594 86.7306 143.532 86.6037L142.154 83.8215L140.776 86.6037C140.714 86.7306 140.622 86.8406 140.508 86.9242C140.394 87.0077 140.262 87.0624 140.122 87.0833L137.052 87.5281L139.276 89.6998C139.377 89.7978 139.453 89.9188 139.497 90.0525C139.541 90.1861 139.552 90.3284 139.529 90.4673L138.997 93.5285L141.744 92.0894C141.87 92.0214 142.011 91.9855 142.154 91.9848Z" fill="#A09CAD"/>
<path d="M42.6078 0.87207L44.7358 5.18046L49.4803 5.86946L46.044 9.21849L46.8551 13.9542L42.6078 11.7215L38.3517 13.9542L39.1628 9.21849L35.7266 5.86946L40.4797 5.18046L42.6078 0.87207Z" fill="white"/>
<path d="M46.855 14.8265C46.7145 14.8269 46.5762 14.7909 46.4538 14.7218L42.6077 12.7071L38.7615 14.7218C38.6213 14.7937 38.4642 14.8262 38.307 14.8159C38.1498 14.8057 37.9983 14.7531 37.8686 14.6636C37.7389 14.5742 37.6359 14.4512 37.5704 14.3079C37.505 14.1646 37.4796 14.0063 37.4969 13.8497L38.2295 9.56743L35.116 6.49748C35.0038 6.3856 34.9243 6.24531 34.8859 6.09166C34.8475 5.93801 34.8516 5.7768 34.8979 5.62533C34.9485 5.47033 35.0414 5.3326 35.1663 5.22777C35.2912 5.12295 35.4429 5.05522 35.6044 5.03228L39.904 4.36072L41.8576 0.488403C41.9295 0.341618 42.0413 0.217999 42.1801 0.131644C42.3188 0.0452896 42.4791 -0.000325372 42.6426 1.74711e-06C42.806 -0.000325372 42.9663 0.0452896 43.1051 0.131644C43.2438 0.217999 43.3556 0.341618 43.4275 0.488403L45.3462 4.36072L49.6459 4.98867C49.8057 5.01312 49.9556 5.08153 50.0788 5.18626C50.202 5.29099 50.2937 5.42791 50.3436 5.58173C50.3899 5.7332 50.394 5.89441 50.3556 6.04806C50.3172 6.20171 50.2377 6.342 50.1256 6.45387L47.0207 9.48021L47.7533 13.7624C47.7845 13.926 47.7682 14.095 47.7063 14.2495C47.6445 14.404 47.5398 14.5377 47.4045 14.6346C47.2487 14.7596 47.0547 14.8273 46.855 14.8265ZM37.6016 6.48004L39.7732 8.59935C39.8741 8.69738 39.9499 8.81839 39.9939 8.95203C40.038 9.08568 40.049 9.22799 40.0261 9.36683L39.5116 12.3583L42.1978 10.9454C42.3228 10.8797 42.462 10.8454 42.6033 10.8454C42.7446 10.8454 42.8838 10.8797 43.0089 10.9454L45.6951 12.3583L45.1892 9.36683C45.1652 9.2287 45.1749 9.08682 45.2174 8.95321C45.2599 8.81961 45.334 8.69823 45.4334 8.59935L47.6051 6.48004L44.6049 6.04396C44.4652 6.02298 44.3326 5.96835 44.2187 5.8848C44.1047 5.80124 44.0128 5.69125 43.9508 5.56428L42.6077 2.84319L41.2646 5.56428C41.2026 5.69125 41.1106 5.80124 40.9967 5.8848C40.8827 5.96835 40.7502 6.02298 40.6105 6.04396L37.6016 6.48004Z" fill="#A09CAD"/>
<path d="M7.74792 53.2012L9.86723 57.5096L14.6204 58.1986L11.1842 61.5476L11.9953 66.2833L7.74792 64.0507L3.49185 66.2833L4.30295 61.5476L0.866699 58.1986L5.61989 57.5096L7.74792 53.2012Z" fill="white"/>
<path d="M11.9952 67.1556C11.852 67.1548 11.7112 67.1189 11.5852 67.0509L7.74781 65.0363L3.90165 67.0509C3.76144 67.1228 3.60438 67.1553 3.44717 67.145C3.28995 67.1348 3.13844 67.0822 3.00874 66.9927C2.87905 66.9033 2.776 66.7803 2.71055 66.637C2.64511 66.4937 2.6197 66.3354 2.63704 66.1788L3.36964 61.8965L0.256088 58.8266C0.14398 58.7147 0.0644527 58.5744 0.0260401 58.4208C-0.0123725 58.2671 -0.00822017 58.1059 0.0380515 57.9544C0.0886009 57.7994 0.181586 57.6617 0.306454 57.5569C0.431322 57.452 0.583074 57.3843 0.744489 57.3614L5.04416 56.6898L6.9716 52.8175C7.04352 52.6707 7.15525 52.5471 7.29403 52.4607C7.43281 52.3744 7.59307 52.3288 7.75653 52.3291C7.9185 52.3304 8.07692 52.3768 8.21401 52.463C8.35111 52.5493 8.46147 52.672 8.53274 52.8175L10.4602 56.6898L14.7599 57.3178C14.9197 57.3422 15.0696 57.4106 15.1928 57.5154C15.316 57.6201 15.4077 57.757 15.4576 57.9108C15.5038 58.0623 15.508 58.2235 15.4696 58.3772C15.4312 58.5308 15.3516 58.6711 15.2395 58.783L12.1173 61.8529L12.8586 66.1352C12.8897 66.2987 12.8734 66.4677 12.8116 66.6222C12.7498 66.7767 12.645 66.9104 12.5097 67.0073C12.358 67.1095 12.178 67.1613 11.9952 67.1556ZM2.7417 58.8091L4.91334 60.9284C5.01429 61.0265 5.09001 61.1475 5.13405 61.2811C5.1781 61.4148 5.18915 61.5571 5.16626 61.6959L4.6517 64.6874L7.3379 63.2745C7.46299 63.2088 7.60216 63.1745 7.74345 63.1745C7.88474 63.1745 8.02391 63.2088 8.149 63.2745L10.8352 64.6874L10.3206 61.6959C10.2978 61.5571 10.3088 61.4148 10.3528 61.2811C10.3969 61.1475 10.4726 61.0265 10.5736 60.9284L12.7452 58.8091L9.74502 58.3731C9.60529 58.3521 9.47275 58.2975 9.35881 58.2139C9.24486 58.1303 9.15293 58.0203 9.09091 57.8934L7.74781 55.1723L6.40471 57.8934C6.34188 58.0214 6.24859 58.1321 6.13303 58.2158C6.01747 58.2994 5.88316 58.3534 5.74188 58.3731L2.7417 58.8091Z" fill="#A09CAD"/>
</svg>
