<svg width="150" height="150" viewBox="0 0 150 150" fill="none" xmlns="http://www.w3.org/2000/svg">
<g clip-path="url(#clip0_139_2200)">
<path d="M148.696 46.1367L113.54 30.5127C113.259 30.3866 112.954 30.3214 112.646 30.3214C112.338 30.3214 112.034 30.3866 111.753 30.5127L104.004 33.9551V23.7305C104.004 23.1477 103.772 22.5888 103.36 22.1768C102.948 21.7647 102.389 21.5332 101.807 21.5332H2.19727C1.61451 21.5332 1.05563 21.7647 0.643564 22.1768C0.231497 22.5888 0 23.1477 0 23.7305L0 50.0977C0 50.6804 0.231497 51.2393 0.643564 51.6514C1.05563 52.0634 1.61451 52.2949 2.19727 52.2949H5.85938V59.6191H2.19727C1.61451 59.6191 1.05563 59.8506 0.643564 60.2627C0.231497 60.6748 0 61.2337 0 61.8164L0 88.1836C0 88.7663 0.231497 89.3252 0.643564 89.7373C1.05563 90.1494 1.61451 90.3809 2.19727 90.3809H5.85938V97.7051H2.19727C1.61451 97.7051 1.05563 97.9366 0.643564 98.3486C0.231497 98.7607 0 99.3196 0 99.9023L0 126.27C0 126.852 0.231497 127.411 0.643564 127.823C1.05563 128.235 1.61451 128.467 2.19727 128.467H101.807C102.389 128.467 102.948 128.235 103.36 127.823C103.772 127.411 104.004 126.852 104.004 126.27V124.143C106.485 125.704 109.074 127.086 111.753 128.276C112.034 128.402 112.339 128.467 112.646 128.467C112.954 128.467 113.259 128.402 113.54 128.276C124.388 123.448 133.605 115.579 140.076 105.622C146.546 95.6656 149.993 84.0474 150 72.1729V48.1494C150.001 47.7238 149.878 47.3071 149.646 46.9498C149.415 46.5926 149.085 46.3101 148.696 46.1367ZM4.39453 34.6436H41.0156V39.0381H4.39453V34.6436ZM4.39453 43.4326H43.2129C43.7956 43.4326 44.3545 43.2011 44.7666 42.7891C45.1787 42.377 45.4102 41.8181 45.4102 41.2354V32.4463C45.4102 31.8635 45.1787 31.3047 44.7666 30.8926C44.3545 30.4805 43.7956 30.249 43.2129 30.249H4.39453V25.9277H99.6094V35.9092L76.5967 46.1367C76.2478 46.2924 75.9457 46.5365 75.7201 46.8448C75.4945 47.1531 75.3534 47.5149 75.3105 47.8945H4.39453V43.4326ZM10.2539 52.2949H75.293V59.6191H10.2539V52.2949ZM4.39453 72.7295H41.0156V77.124H4.39453V72.7295ZM4.39453 81.5186H43.2129C43.7956 81.5186 44.3545 81.2871 44.7666 80.875C45.1787 80.4629 45.4102 79.904 45.4102 79.3213V70.5322C45.4102 69.9495 45.1787 69.3906 44.7666 68.9785C44.3545 68.5665 43.7956 68.335 43.2129 68.335H4.39453V64.0137H75.293V72.1729C75.2936 76.8223 75.8234 81.4566 76.8721 85.9863H4.39453V81.5186ZM10.2539 90.3809H78.0615C78.839 92.8795 79.7755 95.3259 80.8652 97.7051H10.2539V90.3809ZM4.39453 110.815H41.0156V115.21H4.39453V110.815ZM99.6094 124.072H4.39453V119.604H43.2129C43.7956 119.604 44.3545 119.373 44.7666 118.961C45.1787 118.549 45.4102 117.99 45.4102 117.407V108.618C45.4102 108.035 45.1787 107.477 44.7666 107.064C44.3545 106.652 43.7956 106.421 43.2129 106.421H4.39453V102.1H83.0947C87.229 109.506 92.8519 115.975 99.6094 121.102V124.072ZM145.605 72.1729C145.6 83.0309 142.495 93.6618 136.657 102.817C130.819 111.972 122.489 119.27 112.646 123.855C102.804 119.27 94.4744 111.972 88.6361 102.817C82.7979 93.6618 79.6934 83.0309 79.6875 72.1729V49.5732L112.646 34.9248L145.605 49.5732V72.1729Z" fill="#E76E26"/>
<path d="M68.7012 30.3955H56.9824C56.3997 30.3955 55.8408 30.627 55.4287 31.0391C55.0167 31.4511 54.7852 32.01 54.7852 32.5928V41.3818C54.7852 41.9646 55.0167 42.5235 55.4287 42.9355C55.8408 43.3476 56.3997 43.5791 56.9824 43.5791H68.7012C69.2839 43.5791 69.8428 43.3476 70.2549 42.9355C70.6669 42.5235 70.8984 41.9646 70.8984 41.3818V32.5928C70.8984 32.01 70.6669 31.4511 70.2549 31.0391C69.8428 30.627 69.2839 30.3955 68.7012 30.3955ZM66.5039 39.1846H59.1797V34.79H66.5039V39.1846Z" fill="#E76E26"/>
<path d="M68.7012 68.4814H56.9824C56.3997 68.4814 55.8408 68.7129 55.4287 69.125C55.0167 69.5371 54.7852 70.096 54.7852 70.6787V79.4678C54.7852 80.0505 55.0167 80.6094 55.4287 81.0215C55.8408 81.4335 56.3997 81.665 56.9824 81.665H68.7012C69.2839 81.665 69.8428 81.4335 70.2549 81.0215C70.6669 80.6094 70.8984 80.0505 70.8984 79.4678V70.6787C70.8984 70.096 70.6669 69.5371 70.2549 69.125C69.8428 68.7129 69.2839 68.4814 68.7012 68.4814ZM66.5039 77.2705H59.1797V72.876H66.5039V77.2705Z" fill="#E76E26"/>
<path d="M68.7012 106.567H56.9824C56.3997 106.567 55.8408 106.799 55.4287 107.211C55.0167 107.623 54.7852 108.182 54.7852 108.765V117.554C54.7852 118.136 55.0167 118.695 55.4287 119.107C55.8408 119.519 56.3997 119.751 56.9824 119.751H68.7012C69.2839 119.751 69.8428 119.519 70.2549 119.107C70.6669 118.695 70.8984 118.136 70.8984 117.554V108.765C70.8984 108.182 70.6669 107.623 70.2549 107.211C69.8428 106.799 69.2839 106.567 68.7012 106.567ZM66.5039 115.356H59.1797V110.962H66.5039V115.356Z" fill="#E76E26"/>
<path d="M89.9414 79.3945C89.9414 83.8852 91.273 88.275 93.7679 92.0088C96.2628 95.7426 99.8088 98.6528 103.958 100.371C108.106 102.09 112.672 102.539 117.076 101.663C121.48 100.787 125.526 98.6248 128.701 95.4494C131.877 92.2741 134.039 88.2284 134.915 83.8241C135.791 79.4197 135.342 74.8545 133.623 70.7057C131.905 66.5569 128.995 63.0108 125.261 60.516C121.527 58.0211 117.137 56.6895 112.646 56.6895C106.627 56.6964 100.856 59.0908 96.5993 63.3473C92.3428 67.6038 89.9484 73.3749 89.9414 79.3945ZM130.957 79.3945C130.957 83.016 129.883 86.5562 127.871 89.5673C125.859 92.5785 122.999 94.9254 119.654 96.3113C116.308 97.6972 112.626 98.0598 109.074 97.3532C105.522 96.6467 102.26 94.9028 99.699 92.342C97.1382 89.7813 95.3943 86.5186 94.6878 82.9667C93.9813 79.4148 94.3439 75.7332 95.7297 72.3874C97.1156 69.0416 99.4625 66.1819 102.474 64.1699C105.485 62.1579 109.025 61.084 112.646 61.084C117.501 61.0894 122.155 63.0203 125.588 66.453C129.021 69.8857 130.952 74.5399 130.957 79.3945Z" fill="#E76E26"/>
<path d="M105.422 78.8845C105.012 78.4696 104.455 78.2344 103.872 78.2305C103.289 78.2267 102.728 78.4546 102.313 78.864C101.898 79.2735 101.663 79.831 101.659 80.414C101.655 80.9969 101.883 81.5575 102.293 81.9724L107.472 87.2166C107.677 87.4234 107.92 87.5876 108.188 87.6997C108.457 87.8118 108.745 87.8695 109.035 87.8695C109.326 87.8695 109.614 87.8118 109.882 87.6997C110.151 87.5876 110.394 87.4234 110.598 87.2166L123 74.6599C123.409 74.245 123.637 73.6844 123.633 73.1015C123.629 72.5185 123.394 71.961 122.979 71.5515C122.564 71.1421 122.004 70.9142 121.421 70.918C120.838 70.9219 120.28 71.1571 119.871 71.572L109.031 82.5437L105.422 78.8845Z" fill="#E76E26"/>
</g>
<defs>
<clipPath id="clip0_139_2200">
<rect width="150" height="150" fill="white"/>
</clipPath>
</defs>
</svg>
